<svg version="1.1" id="Layer_1" xmlns="http://www.w3.org/2000/svg" xmlns:xlink="http://www.w3.org/1999/xlink" x="0px" y="0px"
	 width="100%" viewBox="0 0 2560 2560" enable-background="new 0 0 2560 2560" xml:space="preserve">
<path fill="#000000" opacity="1.000000" stroke="none" 
	d="
M1612.000000,2562.000000 
	C1074.666626,2562.000000 538.333313,2562.000000 2.000000,2562.000000 
	C2.000000,1708.666626 2.000000,855.333313 2.000000,2.000000 
	C855.333313,2.000000 1708.666626,2.000000 2562.000000,2.000000 
	C2562.000000,855.333313 2562.000000,1708.666626 2562.000000,2562.000000 
	C2245.666748,2562.000000 1929.333374,2562.000000 1612.000000,2562.000000 
M332.317780,1513.000000 
	C332.317780,1587.653809 332.317749,1662.307617 332.317749,1736.961426 
	C332.317719,1779.621460 332.282074,1822.281616 332.390472,1864.941284 
	C332.398529,1868.108765 332.451538,1872.038330 334.193481,1874.291626 
	C338.825623,1880.283203 343.885681,1884.627808 353.097107,1884.617065 
	C812.675354,1884.083862 1272.254028,1883.882690 1731.832642,1883.719482 
	C1757.462524,1883.710327 1782.917847,1881.393433 1808.140625,1877.468140 
	C1872.948608,1867.381958 1934.562012,1847.381714 1992.819946,1816.930176 
	C2061.516846,1781.022217 2120.616455,1733.312500 2170.616211,1674.251221 
	C2216.878174,1619.605103 2251.803711,1558.318848 2275.522217,1490.837280 
	C2296.367188,1431.531860 2308.004883,1370.452515 2307.689453,1307.350952 
	C2307.597656,1289.020996 2307.430664,1270.686035 2307.735352,1252.360596 
	C2308.162109,1226.695312 2305.379150,1201.269775 2301.357666,1176.058350 
	C2292.250244,1118.963013 2274.869629,1064.418457 2249.561523,1012.332275 
	C2211.888184,934.797668 2159.541992,868.790100 2093.156982,814.178528 
	C2021.925049,755.579773 1941.147827,715.699890 1851.033569,695.195007 
	C1819.285400,687.970886 1787.276489,681.778198 1754.628784,681.767029 
	C1287.368042,681.606873 820.107361,681.661377 352.846649,681.664246 
	C351.513519,681.664246 350.158844,681.818787 348.851105,681.636414 
	C343.769562,680.927979 340.352112,683.256287 336.550903,686.537842 
	C331.577454,690.831482 332.331635,695.911621 332.331360,701.125854 
	C332.316010,971.083923 332.317810,1241.041992 332.317780,1513.000000 
z"/>
<path fill="#F5FD65" opacity="1.000000" stroke="none" 
	d="
M332.317810,1512.000000 
	C332.317810,1241.041992 332.316010,971.083923 332.331360,701.125854 
	C332.331635,695.911621 331.577454,690.831482 336.550903,686.537842 
	C340.352112,683.256287 343.769562,680.927979 348.851105,681.636414 
	C350.158844,681.818787 351.513519,681.664246 352.846649,681.664246 
	C820.107361,681.661377 1287.368042,681.606873 1754.628784,681.767029 
	C1787.276489,681.778198 1819.285400,687.970886 1851.033569,695.195007 
	C1941.147827,715.699890 2021.925049,755.579773 2093.156982,814.178528 
	C2159.541992,868.790100 2211.888184,934.797668 2249.561523,1012.332275 
	C2274.869629,1064.418457 2292.250244,1118.963013 2301.357666,1176.058350 
	C2305.379150,1201.269775 2308.162109,1226.695312 2307.735352,1252.360596 
	C2307.430664,1270.686035 2307.597656,1289.020996 2307.689453,1307.350952 
	C2308.004883,1370.452515 2296.367188,1431.531860 2275.522217,1490.837280 
	C2251.803711,1558.318848 2216.878174,1619.605103 2170.616211,1674.251221 
	C2120.616455,1733.312500 2061.516846,1781.022217 1992.819946,1816.930176 
	C1934.562012,1847.381714 1872.948608,1867.381958 1808.140625,1877.468140 
	C1782.917847,1881.393433 1757.462524,1883.710327 1731.832642,1883.719482 
	C1272.254028,1883.882690 812.675354,1884.083862 353.097107,1884.617065 
	C343.885681,1884.627808 338.825623,1880.283203 334.193481,1874.291626 
	C332.451538,1872.038330 332.398529,1868.108765 332.390472,1864.941284 
	C332.282074,1822.281616 332.317719,1779.621460 332.317749,1736.961426 
	C332.317749,1662.307617 332.317780,1587.653809 332.317810,1512.000000 
M2097.202148,1696.231445 
	C2110.279297,1682.491699 2123.832764,1669.170654 2136.342285,1654.932251 
	C2171.275879,1615.170410 2199.489990,1570.885498 2221.261475,1522.732544 
	C2250.563965,1457.922729 2267.247314,1389.931763 2269.690430,1318.645752 
	C2271.183594,1275.080322 2270.677979,1231.644653 2264.411377,1188.353516 
	C2256.640381,1134.668945 2241.040771,1083.402588 2217.897461,1034.472900 
	C2185.338623,965.636963 2140.515381,905.956299 2083.198975,855.656616 
	C2022.530396,802.415222 1953.540771,764.382263 1876.268921,741.250183 
	C1824.068359,725.623474 1770.714355,718.282898 1716.235962,718.290833 
	C1271.972778,718.355774 827.709595,718.327148 383.446381,718.326965 
	C381.779968,718.326965 380.107574,718.237488 378.448578,718.348511 
	C375.912292,718.518188 373.385315,718.826294 371.066528,719.054749 
	C371.066528,1094.878906 371.066528,1469.957764 371.066528,1845.651611 
	C375.741425,1845.651611 379.699677,1845.651489 383.657959,1845.651489 
	C826.588013,1845.651489 1269.518066,1845.663086 1712.448120,1845.595825 
	C1726.059937,1845.593750 1739.669067,1844.643677 1753.284180,1844.357666 
	C1776.591064,1843.868042 1799.515991,1840.275879 1822.343384,1835.981689 
	C1893.789551,1822.541260 1959.796997,1795.564209 2020.744385,1756.028076 
	C2047.599487,1738.607300 2072.522461,1718.732422 2097.202148,1696.231445 
z"/>
<path fill="#020201" opacity="1.000000" stroke="none" 
	d="
M2096.651123,1696.679443 
	C2072.522461,1718.732422 2047.599487,1738.607300 2020.744385,1756.028076 
	C1959.796997,1795.564209 1893.789551,1822.541260 1822.343384,1835.981689 
	C1799.515991,1840.275879 1776.591064,1843.868042 1753.284180,1844.357666 
	C1739.669067,1844.643677 1726.059937,1845.593750 1712.448120,1845.595825 
	C1269.518066,1845.663086 826.588013,1845.651489 383.657959,1845.651489 
	C379.699677,1845.651489 375.741425,1845.651611 371.066528,1845.651611 
	C371.066528,1469.957764 371.066528,1094.878906 371.066528,719.054749 
	C373.385315,718.826294 375.912292,718.518188 378.448578,718.348511 
	C380.107574,718.237488 381.779968,718.326965 383.446381,718.326965 
	C827.709595,718.327148 1271.972778,718.355774 1716.235962,718.290833 
	C1770.714355,718.282898 1824.068359,725.623474 1876.268921,741.250183 
	C1953.540771,764.382263 2022.530396,802.415222 2083.198975,855.656616 
	C2140.515381,905.956299 2185.338623,965.636963 2217.897461,1034.472900 
	C2241.040771,1083.402588 2256.640381,1134.668945 2264.411377,1188.353516 
	C2270.677979,1231.644653 2271.183594,1275.080322 2269.690430,1318.645752 
	C2267.247314,1389.931763 2250.563965,1457.922729 2221.261475,1522.732544 
	C2199.489990,1570.885498 2171.275879,1615.170410 2136.342285,1654.932251 
	C2123.832764,1669.170654 2110.279297,1682.491699 2096.651123,1696.679443 
M627.960327,1192.061035 
	C627.960327,1192.061035 628.089783,1192.047852 627.426453,1190.948364 
	C626.228271,1190.519165 625.030090,1190.089966 622.968628,1188.555908 
	C606.020020,1181.215088 588.258179,1177.778687 569.840942,1177.693359 
	C551.226929,1177.607178 532.612244,1177.659424 513.997864,1177.691528 
	C511.446320,1177.695923 508.895142,1177.934570 505.924286,1178.086182 
	C505.817230,1180.327637 505.674469,1181.926147 505.674164,1183.524658 
	C505.661560,1248.342529 505.658783,1313.160522 505.675323,1377.978394 
	C505.675842,1379.958862 505.472961,1382.113892 506.189667,1383.846436 
	C506.551056,1384.719849 508.764496,1384.827271 511.953644,1385.687866 
	C536.190308,1385.722290 560.427185,1385.803833 584.663452,1385.719238 
	C587.122375,1385.710693 589.577759,1384.701294 592.067078,1384.057129 
	C592.067078,1384.057129 592.115112,1384.150024 593.767700,1384.398193 
	C597.866211,1383.659302 601.964661,1382.920288 605.926086,1382.195557 
	C605.926086,1382.195557 605.992676,1382.316284 607.652161,1382.520996 
	C628.056396,1378.889648 645.982666,1371.472046 654.898865,1350.821045 
	C661.493286,1335.547241 661.884766,1319.918823 655.730591,1304.508423 
	C652.801880,1297.174805 648.615540,1290.285034 640.278137,1287.640503 
	C640.278137,1287.640503 640.544434,1287.417236 640.100525,1286.160278 
	C638.089722,1285.286743 636.078918,1284.413208 634.067993,1283.851807 
	C634.067993,1283.851807 634.376343,1283.803955 633.801575,1282.595703 
	C632.528503,1282.251465 631.255493,1281.907227 630.064514,1281.919434 
	C630.064514,1281.919434 630.412476,1281.807007 629.807190,1280.730835 
	C628.625793,1280.525635 627.444336,1280.320435 624.949951,1279.315796 
	C623.003418,1278.809082 621.056824,1278.302368 619.621887,1276.397583 
	C620.697266,1275.695312 621.691650,1274.792358 622.859985,1274.320068 
	C649.239380,1263.656250 656.473389,1235.314819 646.587463,1211.570312 
	C644.785522,1207.242432 640.948608,1203.761719 638.001892,1199.996826 
	C638.001892,1199.996826 638.111877,1199.955322 637.794678,1198.736938 
	C636.707825,1198.230103 635.620972,1197.723145 634.492615,1197.499878 
	C634.492615,1197.499878 634.728455,1197.336914 634.531799,1196.030396 
	C633.059875,1195.217896 631.587952,1194.405396 630.012268,1193.833862 
	C630.012268,1193.833862 630.261902,1193.914795 630.069031,1192.763306 
	C629.354370,1192.487427 628.639648,1192.211670 627.960327,1192.061035 
M940.250610,1238.511841 
	C938.193909,1234.294189 936.137268,1230.076538 934.030884,1225.990479 
	C934.030884,1225.990479 934.171082,1225.979492 934.239197,1224.460205 
	C928.999207,1212.107544 923.865540,1199.707886 918.446472,1187.434326 
	C917.047119,1184.264893 914.752075,1181.490967 911.012268,1177.781982 
	C894.811035,1177.781982 878.609863,1177.781982 862.251709,1177.781982 
	C862.251709,1247.442993 862.251709,1316.158936 862.251709,1385.296631 
	C874.386963,1385.296631 885.948853,1385.296631 899.326599,1385.234009 
	C899.659668,1381.649170 900.273315,1378.065186 900.281921,1374.479492 
	C900.359070,1342.283081 900.347412,1310.086182 900.305298,1277.889526 
	C900.300964,1274.598145 899.926636,1271.307129 899.857483,1266.217285 
	C899.600952,1261.270264 899.261780,1256.325806 899.109985,1251.375488 
	C898.939270,1245.810669 898.937683,1240.240845 899.380188,1236.283325 
	C920.370300,1285.950317 941.360413,1335.617432 962.354858,1385.294678 
	C979.771729,1385.294678 996.651611,1385.294678 1015.345337,1385.234985 
	C1015.679321,1382.304321 1016.302185,1379.373901 1016.304749,1376.442993 
	C1016.360718,1313.502441 1016.356018,1250.562012 1016.316650,1187.621460 
	C1016.315002,1184.994507 1015.864990,1182.367798 1014.928528,1178.187378 
	C1002.760193,1178.187378 990.591858,1178.187378 977.669861,1178.187378 
	C977.669861,1181.941040 977.642090,1185.200073 977.674011,1188.458618 
	C978.129761,1234.923218 976.151062,1281.430298 978.787170,1326.865845 
	C976.495911,1321.778564 974.213806,1316.687012 971.911621,1311.604614 
	C965.304565,1297.019043 958.689331,1282.437012 952.032654,1267.988159 
	C952.032654,1267.988159 952.174255,1267.987061 952.248169,1266.514771 
	C950.191833,1262.295044 948.135498,1258.075317 946.032471,1253.988892 
	C946.032471,1253.988892 946.173645,1253.984375 946.250122,1252.512573 
	C944.193420,1248.294189 942.136719,1244.075928 940.031311,1239.989868 
	C940.031311,1239.989868 940.171997,1239.983154 940.250610,1238.511841 
M1338.885986,1202.661499 
	C1339.789429,1197.148193 1340.891602,1191.656616 1341.494385,1186.110596 
	C1341.721680,1184.019287 1340.793091,1181.802246 1339.441772,1178.129517 
	C1337.459595,1177.975586 1335.477539,1177.688843 1333.495239,1177.687378 
	C1297.860718,1177.661865 1262.226318,1177.657837 1226.591797,1177.703857 
	C1224.397705,1177.706665 1222.203979,1178.164429 1220.124756,1178.397705 
	C1218.188354,1207.954712 1219.093140,1377.473145 1221.183228,1385.206177 
	C1244.024292,1387.021606 1336.242920,1386.231201 1343.041870,1384.265015 
	C1343.041870,1374.334473 1343.041870,1364.526978 1343.041870,1353.978638 
	C1315.653564,1353.978638 1289.041382,1353.978638 1262.364014,1352.103638 
	C1262.361572,1342.780396 1262.303345,1333.456665 1262.372681,1324.133911 
	C1262.440796,1314.968262 1262.054688,1305.769287 1262.678223,1296.076294 
	C1285.165894,1296.076294 1306.368896,1296.076294 1327.454590,1296.076294 
	C1327.454590,1285.600952 1327.454590,1275.760498 1326.444336,1264.666016 
	C1322.840454,1264.554321 1319.237305,1264.371826 1315.632690,1264.343018 
	C1297.899292,1264.200928 1280.165649,1264.099487 1262.364258,1262.107910 
	C1262.356567,1245.004028 1262.345093,1227.900024 1262.374023,1209.868164 
	C1288.550537,1209.868164 1313.240234,1209.868164 1338.007690,1209.868164 
	C1338.007690,1207.260254 1338.007690,1205.625122 1338.885986,1202.661499 
M1182.867554,1178.163818 
	C1181.219116,1177.998779 1179.570801,1177.691040 1177.922241,1177.689941 
	C1140.934082,1177.665405 1103.946045,1177.668579 1066.957886,1177.698486 
	C1065.397339,1177.699829 1063.837036,1178.009521 1062.356079,1178.166992 
	C1062.356079,1247.554077 1062.356079,1316.308105 1062.356079,1384.992432 
	C1080.405396,1386.810913 1178.255005,1386.148682 1185.066040,1384.305664 
	C1185.066040,1374.409302 1185.066040,1364.599976 1185.066040,1354.002197 
	C1157.697266,1354.002197 1131.076416,1354.002197 1104.371216,1352.123291 
	C1104.371216,1333.717773 1104.371216,1315.312134 1104.371216,1296.081665 
	C1127.087524,1296.081665 1148.448730,1296.081665 1170.743652,1296.081665 
	C1170.275269,1285.391724 1169.845581,1275.586914 1168.339844,1264.607788 
	C1147.050171,1264.409912 1125.760620,1264.212036 1104.372681,1262.133423 
	C1104.369141,1253.494141 1104.326660,1244.854614 1104.373413,1236.215576 
	C1104.419312,1227.736328 1104.555908,1219.257568 1104.658691,1210.248779 
	C1130.423096,1210.248779 1154.941650,1210.248779 1180.577271,1210.248779 
	C1181.618774,1199.770508 1182.617310,1189.725464 1182.867554,1178.163818 
M775.290894,1177.980591 
	C758.765320,1177.980591 742.239746,1177.980591 726.330017,1177.980591 
	C725.367310,1179.459473 724.856628,1179.966309 724.667786,1180.573364 
	C706.338135,1239.519897 688.033203,1298.473999 669.725891,1357.427368 
	C667.266174,1365.348267 664.752136,1373.252686 662.361816,1381.194580 
	C661.263550,1384.843628 662.715332,1386.250000 668.195435,1385.597412 
	C681.374207,1385.597412 694.552917,1385.597412 707.694031,1385.597412 
	C712.326721,1369.283325 716.752808,1353.696899 721.045837,1337.985229 
	C721.045837,1337.985229 720.917297,1338.115112 722.984985,1338.271606 
	C743.249390,1338.257935 763.513855,1338.244141 784.067017,1339.737549 
	C784.708252,1341.960083 785.370422,1344.176758 785.987183,1346.406006 
	C789.160461,1357.876099 792.360352,1369.339233 795.459351,1380.829346 
	C796.175354,1383.484131 796.480469,1386.293213 802.171570,1385.605103 
	C815.435120,1385.605103 828.698669,1385.605103 842.903015,1385.605103 
	C841.552002,1380.526001 840.521973,1376.067749 839.181458,1371.704956 
	C825.359070,1326.719238 811.505737,1281.742920 797.618347,1236.777222 
	C792.336609,1219.675537 787.018311,1202.584229 781.523132,1185.550537 
	C780.707947,1183.023560 780.845642,1179.177246 775.290894,1177.980591 
M2188.250977,1122.888306 
	C2203.162842,1093.811890 2190.261963,1052.723267 2157.745605,1037.481689 
	C2124.229736,1021.771423 2090.727051,1022.447327 2057.306396,1035.953979 
	C2043.293335,1041.617188 2030.447754,1050.169189 2016.439697,1057.749756 
	C2015.771240,1056.890381 2014.215942,1055.230347 2013.044189,1053.333496 
	C1989.060791,1014.506165 1959.449341,980.533264 1924.596069,951.143982 
	C1868.624878,903.947510 1805.366577,871.464661 1732.885498,858.895935 
	C1718.366089,856.378113 1702.389648,855.717957 1688.209961,859.024902 
	C1647.454956,868.529480 1621.338013,894.865173 1611.865479,935.841064 
	C1605.221558,964.581970 1610.118042,991.564819 1630.895142,1013.885986 
	C1645.079346,1029.124268 1663.284424,1038.124756 1682.958374,1044.030029 
	C1704.746338,1050.569946 1725.560059,1059.204712 1744.468506,1071.887939 
	C1784.339111,1098.631836 1812.543457,1134.853027 1830.468872,1179.231567 
	C1831.233154,1181.123413 1831.481445,1183.223511 1832.208252,1186.203613 
	C1801.336426,1171.049683 1770.155273,1164.588379 1737.264648,1169.758057 
	C1684.248169,1178.090942 1645.119751,1205.848511 1622.006592,1254.716553 
	C1608.748657,1282.747559 1605.465942,1312.030396 1614.551147,1342.039307 
	C1623.653564,1372.105103 1646.286255,1385.723633 1670.074707,1388.172485 
	C1700.486328,1391.303223 1721.713745,1372.655884 1731.457764,1349.954956 
	C1744.201416,1320.265869 1766.340698,1300.039307 1796.852661,1289.454712 
	C1813.130493,1283.807983 1829.862061,1280.531616 1847.617310,1284.479492 
	C1847.487793,1287.011719 1847.473511,1288.968140 1847.264648,1290.903687 
	C1847.052368,1292.870239 1846.512085,1294.804810 1846.348267,1296.772827 
	C1844.257690,1321.882324 1837.198730,1345.672241 1826.942627,1368.541260 
	C1813.856689,1397.720459 1795.505981,1423.111450 1772.390625,1445.315063 
	C1749.194946,1467.596191 1722.902832,1484.400635 1692.182007,1494.032837 
	C1670.786743,1500.741089 1650.399292,1509.261230 1632.644409,1523.428711 
	C1616.581787,1536.245850 1605.109131,1552.023315 1598.935059,1571.682495 
	C1595.255493,1583.398926 1596.489746,1595.407715 1596.351562,1607.335571 
	C1595.980835,1639.304443 1615.882080,1678.532959 1655.715820,1694.344238 
	C1680.087524,1704.018433 1704.886963,1703.848511 1730.159912,1698.862183 
	C1776.847534,1689.650635 1821.033813,1673.746704 1862.322388,1650.042114 
	C1903.930298,1626.154297 1940.568604,1596.202026 1972.026001,1559.889282 
	C1996.780884,1531.313599 2017.425659,1500.065552 2034.058228,1466.160034 
	C2036.291504,1461.607300 2038.967163,1458.886597 2044.309448,1458.187988 
	C2061.778564,1455.903809 2075.138428,1446.528198 2085.695557,1432.834717 
	C2102.073975,1411.589844 2109.819092,1387.615967 2110.544434,1360.691895 
	C2111.389648,1329.308228 2103.808350,1300.620850 2085.890625,1275.079102 
	C2079.254883,1265.619751 2075.193604,1256.327881 2076.220703,1244.765137 
	C2076.568848,1240.846802 2076.404785,1236.601440 2075.241699,1232.892090 
	C2073.142578,1226.196411 2075.146484,1220.499878 2077.915039,1214.718262 
	C2092.503174,1184.253418 2115.747070,1163.691406 2148.223389,1154.145386 
	C2165.300781,1149.125610 2178.672119,1139.712036 2188.250977,1122.888306 
M1207.904785,1778.322754 
	C1228.745117,1778.322754 1249.585449,1778.322754 1271.714722,1778.322754 
	C1237.921509,1669.241821 1204.574097,1561.600342 1171.298340,1454.189697 
	C1144.509766,1454.189697 1118.621216,1454.189697 1092.789795,1454.189697 
	C1081.586426,1490.515259 1070.571289,1526.360840 1059.472656,1562.180542 
	C1048.273193,1598.326172 1037.032349,1634.459229 1025.733032,1670.573853 
	C1014.606812,1706.135742 1003.096619,1741.582886 992.581543,1777.943848 
	C1015.424500,1777.943848 1036.661621,1777.943848 1058.427490,1777.943848 
	C1065.136841,1753.188965 1071.786743,1728.653687 1078.432983,1704.132080 
	C1114.064819,1704.132080 1148.922119,1704.132080 1184.180298,1704.132080 
	C1188.825562,1721.437012 1193.190674,1738.469482 1198.025879,1755.367554 
	C1200.243408,1763.116943 1203.385010,1770.601807 1207.904785,1778.322754 
M718.700012,971.787903 
	C731.115417,961.778076 740.277710,949.383057 746.277771,934.590393 
	C756.117004,910.332642 756.826233,885.309021 751.396179,860.183838 
	C746.165894,835.983459 732.478149,817.164429 711.137512,804.391113 
	C688.041809,790.567383 662.385559,785.162109 635.953613,784.536804 
	C601.309875,783.717407 566.632019,784.324585 531.968872,784.358887 
	C529.404114,784.361450 526.839661,784.692139 524.278076,784.870056 
	C524.278076,894.268738 524.278076,1003.062805 524.278076,1111.912109 
	C545.752502,1111.912109 566.612244,1111.912109 588.471802,1111.912109 
	C588.471802,1074.055908 588.471802,1036.599243 588.471802,998.327148 
	C604.058105,998.327148 618.652039,998.487976 633.241272,998.293701 
	C663.799500,997.886841 692.417480,990.900879 718.700012,971.787903 
M698.711060,1466.085938 
	C694.588562,1463.953735 690.539185,1461.663818 686.331604,1459.715332 
	C661.298706,1448.122559 634.649780,1445.123047 607.577332,1446.536011 
	C586.883728,1447.616089 567.138062,1453.058716 548.954041,1463.746338 
	C502.605682,1490.987427 499.481995,1545.873535 517.110535,1578.540771 
	C527.709717,1598.182007 545.130066,1610.575073 564.841553,1619.248047 
	C583.028870,1627.250610 602.234619,1632.906006 620.738403,1640.234741 
	C631.485413,1644.491333 642.300293,1649.090210 652.093201,1655.139893 
	C675.552856,1669.632324 670.391113,1704.767212 657.999573,1717.722656 
	C645.793396,1730.484375 630.606628,1734.900024 614.021179,1735.544312 
	C587.672485,1736.567749 563.499695,1729.437134 541.906372,1714.060303 
	C536.858826,1710.465820 531.778687,1706.916992 526.406677,1703.130859 
	C515.231567,1715.764282 504.552094,1727.837402 493.919769,1739.857178 
	C507.772888,1753.505981 525.925049,1765.858643 540.578308,1771.758179 
	C578.051880,1786.846069 616.494507,1789.444580 655.640137,1779.907471 
	C677.734680,1774.524414 697.346985,1764.270874 712.320374,1746.671387 
	C735.958008,1718.887817 739.298828,1686.862671 730.221375,1652.939331 
	C723.580078,1628.119873 705.765503,1612.505249 684.000671,1600.697266 
	C663.708313,1589.688232 641.527405,1583.616943 619.911377,1576.059570 
	C607.985413,1571.889771 596.370789,1567.190186 585.829956,1559.907959 
	C566.457031,1546.523804 569.650208,1513.106323 588.784607,1503.289307 
	C597.535217,1498.800049 606.550720,1496.121948 616.302734,1495.671143 
	C640.736877,1494.541504 662.958984,1500.953979 682.900940,1515.174561 
	C686.363281,1517.643555 689.876587,1520.041260 694.070618,1522.962280 
	C704.674500,1510.763306 714.996704,1498.888306 726.088257,1486.128174 
	C717.019836,1479.407837 708.508606,1473.100586 698.711060,1466.085938 
M1120.005249,1063.344727 
	C1119.447632,1060.209595 1118.422729,1057.076782 1118.406372,1053.938843 
	C1118.274536,1028.620605 1118.317383,1003.301453 1118.355713,977.982605 
	C1118.359497,975.417786 1118.685181,972.853455 1118.925171,969.361206 
	C1153.588989,969.361206 1187.732666,969.361206 1221.639404,969.361206 
	C1221.639404,952.906067 1221.639404,937.431763 1221.639404,921.350098 
	C1187.080200,921.350098 1153.210205,921.350098 1118.842285,921.350098 
	C1118.842285,891.595642 1118.842285,862.474670 1118.842285,832.445068 
	C1158.766357,832.445068 1198.265015,832.445068 1238.443481,832.445068 
	C1240.716064,816.082581 1242.877319,800.520874 1245.053223,784.854126 
	C1180.794556,784.854126 1117.622681,784.854126 1054.166504,784.854126 
	C1054.166504,894.123840 1054.166504,1002.876282 1054.166504,1111.705688 
	C1118.405273,1111.705688 1182.142944,1111.705688 1245.909912,1111.705688 
	C1245.909912,1095.560791 1245.909912,1080.039307 1245.909912,1063.643799 
	C1204.278442,1063.643799 1163.063599,1063.643799 1120.005249,1063.344727 
M867.666321,914.627869 
	C867.666321,887.435120 867.666321,860.242371 867.666321,832.291504 
	C908.343689,832.291504 947.867676,832.291504 988.006470,832.291504 
	C990.271790,816.131348 992.441589,800.652893 994.667786,784.771729 
	C930.301392,784.771729 867.476929,784.771729 804.158813,784.771729 
	C804.158813,893.953125 804.158813,1002.697205 804.158813,1111.806152 
	C868.211487,1111.806152 931.948669,1111.806152 995.659302,1111.806152 
	C995.659302,1095.514771 995.659302,1079.755005 995.659302,1063.326660 
	C952.804749,1063.326660 910.623108,1063.326660 868.205994,1063.326660 
	C868.205994,1031.850464 868.205994,1001.065369 868.205994,969.572144 
	C902.914917,969.572144 937.090698,969.572144 971.796448,969.572144 
	C971.796448,953.418884 971.796448,937.973022 971.796448,921.671021 
	C968.292542,921.671021 965.040283,921.671021 961.787964,921.671021 
	C934.470581,921.671021 907.153198,921.672668 879.835815,921.668762 
	C876.838013,921.668335 873.838440,921.692871 870.842773,921.603699 
	C867.355347,921.499878 867.788574,918.829773 867.666321,914.627869 
M785.665955,1546.999878 
	C785.665955,1623.856323 785.665955,1700.712891 785.665955,1777.618896 
	C849.914185,1777.618896 912.987061,1777.618896 975.866028,1777.618896 
	C975.866028,1761.684326 975.866028,1746.461792 975.866028,1730.219727 
	C933.297058,1730.219727 891.181702,1730.219727 848.762207,1730.219727 
	C848.762207,1699.016235 848.762207,1668.846558 848.762207,1637.533691 
	C883.282593,1637.533691 917.397278,1637.533691 951.684631,1637.533691 
	C951.684631,1620.940552 951.684631,1605.499756 951.684631,1589.672974 
	C939.741638,1589.672974 928.443970,1589.672974 917.146301,1589.672974 
	C905.482361,1589.672974 893.818237,1589.706421 882.154480,1589.663208 
	C870.984680,1589.621826 859.797791,1589.863647 848.852478,1589.492920 
	C848.852478,1559.524780 848.852478,1530.982056 848.852478,1501.664307 
	C859.288757,1501.664307 869.224121,1501.664307 879.159485,1501.664307 
	C888.823914,1501.664307 898.488342,1501.664307 908.152771,1501.664307 
	C918.150452,1501.664307 928.148254,1501.704102 938.145691,1501.652832 
	C947.978760,1501.602295 957.835144,1501.886597 967.717102,1501.455811 
	C970.061218,1484.857178 972.210083,1469.641479 974.366028,1454.375244 
	C910.807922,1454.375244 848.379333,1454.375244 785.665955,1454.375244 
	C785.665955,1485.051147 785.665955,1515.025391 785.665955,1546.999878 
M1496.822632,1077.977905 
	C1497.589478,1072.151855 1498.356201,1066.325806 1499.244019,1059.580322 
	C1455.679932,1059.580322 1412.502441,1059.580322 1368.337158,1059.580322 
	C1368.337158,1047.481201 1368.337036,1036.243896 1368.337036,1025.006592 
	C1368.337036,1013.344604 1368.337036,1001.682617 1368.337036,990.020630 
	C1368.337036,978.691833 1368.337036,967.362976 1368.337036,956.034180 
	C1368.337036,944.705383 1368.337036,933.376526 1368.337036,922.047729 
	C1368.337036,910.385742 1368.337036,898.723694 1368.337036,887.061707 
	C1368.337036,875.732910 1368.337036,864.404053 1368.337036,853.075256 
	C1368.337036,841.413269 1368.366943,829.751099 1368.328491,818.089233 
	C1368.291748,806.941711 1368.505615,795.778870 1368.181519,784.898315 
	C1346.198608,784.898315 1325.684448,784.898315 1304.923340,784.898315 
	C1304.923340,894.220459 1304.923340,1002.976135 1304.923340,1112.030396 
	C1367.410767,1112.030396 1429.307373,1112.030396 1492.110962,1112.030396 
	C1493.545776,1101.168457 1494.963623,1090.436035 1496.822632,1077.977905 
M1305.672363,1469.062378 
	C1305.672363,1571.881104 1305.672363,1674.699829 1305.672363,1777.709473 
	C1368.231934,1777.709473 1429.662476,1777.709473 1491.379272,1777.709473 
	C1493.783325,1760.273682 1496.109497,1743.403564 1498.587646,1725.431152 
	C1454.641724,1725.431152 1411.853760,1725.431152 1368.133057,1725.431152 
	C1368.133057,1634.381226 1368.133057,1544.300537 1368.133057,1454.401611 
	C1346.750244,1454.401611 1326.326050,1454.401611 1305.672363,1454.401611 
	C1305.672363,1459.107300 1305.672363,1463.091431 1305.672363,1469.062378 
M1429.000000,1385.749023 
	C1451.848511,1385.749023 1474.696899,1385.749023 1497.716187,1385.749023 
	C1499.344360,1373.799316 1500.793213,1363.166260 1502.374146,1351.564453 
	C1474.394531,1351.564453 1447.571655,1351.564453 1419.793579,1351.564453 
	C1419.793579,1341.179688 1419.793579,1331.614868 1419.793579,1322.049927 
	C1419.793579,1312.396973 1419.793579,1302.744019 1419.793579,1293.091064 
	C1419.793579,1283.770996 1419.793579,1274.450806 1419.793579,1265.130737 
	C1419.793579,1255.477783 1419.793579,1245.824829 1419.793579,1236.171875 
	C1419.793579,1226.518921 1419.893066,1216.864502 1419.765259,1207.213257 
	C1419.639160,1197.688721 1420.367920,1188.105469 1419.219971,1178.407349 
	C1404.766968,1178.407349 1391.375122,1178.407349 1378.038574,1178.407349 
	C1376.069824,1214.383423 1377.011475,1377.260498 1379.329590,1385.748901 
	C1395.123291,1385.748901 1411.061646,1385.748901 1429.000000,1385.749023 
z"/>
<path fill="#F5FD65" opacity="1.000000" stroke="none" 
	d="
M2187.968506,1123.586670 
	C2178.672119,1139.712036 2165.300781,1149.125610 2148.223389,1154.145386 
	C2115.747070,1163.691406 2092.503174,1184.253418 2077.915039,1214.718262 
	C2075.146484,1220.499878 2073.142578,1226.196411 2075.241699,1232.892090 
	C2076.404785,1236.601440 2076.568848,1240.846802 2076.220703,1244.765137 
	C2075.193604,1256.327881 2079.254883,1265.619751 2085.890625,1275.079102 
	C2103.808350,1300.620850 2111.389648,1329.308228 2110.544434,1360.691895 
	C2109.819092,1387.615967 2102.073975,1411.589844 2085.695557,1432.834717 
	C2075.138428,1446.528198 2061.778564,1455.903809 2044.309448,1458.187988 
	C2038.967163,1458.886597 2036.291504,1461.607300 2034.058228,1466.160034 
	C2017.425659,1500.065552 1996.780884,1531.313599 1972.026001,1559.889282 
	C1940.568604,1596.202026 1903.930298,1626.154297 1862.322388,1650.042114 
	C1821.033813,1673.746704 1776.847534,1689.650635 1730.159912,1698.862183 
	C1704.886963,1703.848511 1680.087524,1704.018433 1655.715820,1694.344238 
	C1615.882080,1678.532959 1595.980835,1639.304443 1596.351562,1607.335571 
	C1596.489746,1595.407715 1595.255493,1583.398926 1598.935059,1571.682495 
	C1605.109131,1552.023315 1616.581787,1536.245850 1632.644409,1523.428711 
	C1650.399292,1509.261230 1670.786743,1500.741089 1692.182007,1494.032837 
	C1722.902832,1484.400635 1749.194946,1467.596191 1772.390625,1445.315063 
	C1795.505981,1423.111450 1813.856689,1397.720459 1826.942627,1368.541260 
	C1837.198730,1345.672241 1844.257690,1321.882324 1846.348267,1296.772827 
	C1846.512085,1294.804810 1847.052368,1292.870239 1847.264648,1290.903687 
	C1847.473511,1288.968140 1847.487793,1287.011719 1847.617310,1284.479492 
	C1829.862061,1280.531616 1813.130493,1283.807983 1796.852661,1289.454712 
	C1766.340698,1300.039307 1744.201416,1320.265869 1731.457764,1349.954956 
	C1721.713745,1372.655884 1700.486328,1391.303223 1670.074707,1388.172485 
	C1646.286255,1385.723633 1623.653564,1372.105103 1614.551147,1342.039307 
	C1605.465942,1312.030396 1608.748657,1282.747559 1622.006592,1254.716553 
	C1645.119751,1205.848511 1684.248169,1178.090942 1737.264648,1169.758057 
	C1770.155273,1164.588379 1801.336426,1171.049683 1832.208252,1186.203613 
	C1831.481445,1183.223511 1831.233154,1181.123413 1830.468872,1179.231567 
	C1812.543457,1134.853027 1784.339111,1098.631836 1744.468506,1071.887939 
	C1725.560059,1059.204712 1704.746338,1050.569946 1682.958374,1044.030029 
	C1663.284424,1038.124756 1645.079346,1029.124268 1630.895142,1013.885986 
	C1610.118042,991.564819 1605.221558,964.581970 1611.865479,935.841064 
	C1621.338013,894.865173 1647.454956,868.529480 1688.209961,859.024902 
	C1702.389648,855.717957 1718.366089,856.378113 1732.885498,858.895935 
	C1805.366577,871.464661 1868.624878,903.947510 1924.596069,951.143982 
	C1959.449341,980.533264 1989.060791,1014.506165 2013.044189,1053.333496 
	C2014.215942,1055.230347 2015.771240,1056.890381 2016.439697,1057.749756 
	C2030.447754,1050.169189 2043.293335,1041.617188 2057.306396,1035.953979 
	C2090.727051,1022.447327 2124.229736,1021.771423 2157.745605,1037.481689 
	C2190.261963,1052.723267 2203.162842,1093.811890 2187.968506,1123.586670 
M1687.303101,1536.127319 
	C1681.586182,1538.802246 1675.754883,1541.258789 1670.171875,1544.188965 
	C1642.347656,1558.791138 1630.359253,1580.697266 1634.359375,1610.125977 
	C1638.228149,1638.588501 1657.583008,1658.017944 1683.079102,1662.443848 
	C1693.719849,1664.290894 1704.167969,1664.047485 1714.708862,1662.286621 
	C1769.592773,1653.118408 1820.249268,1633.130005 1866.409180,1602.134766 
	C1913.767212,1570.335083 1952.108032,1529.722778 1981.960327,1481.148193 
	C1988.009644,1471.304810 1993.324951,1461.010498 1998.862671,1451.131348 
	C1997.712402,1449.612183 1997.266235,1448.647095 1996.517090,1448.088501 
	C1978.490601,1434.647339 1971.418579,1416.302124 1971.500854,1394.294922 
	C1971.529175,1386.750488 1970.419189,1379.019165 1968.592529,1371.681152 
	C1959.369995,1334.630249 1936.350952,1309.109863 1901.844360,1293.600464 
	C1896.939941,1291.396118 1891.707275,1289.922119 1886.369995,1288.018677 
	C1883.720215,1317.223389 1876.906738,1345.618774 1868.458496,1367.634155 
	C1852.319580,1409.689453 1827.744141,1445.970337 1794.821533,1476.597534 
	C1774.477173,1495.523438 1751.858154,1511.225220 1726.179932,1522.043823 
	C1713.967041,1527.189331 1701.268311,1531.181519 1687.303101,1536.127319 
M1727.448364,1288.452759 
	C1727.999023,1288.083008 1728.620728,1287.786743 1729.089966,1287.332764 
	C1754.075562,1263.158936 1783.849121,1249.221924 1818.430664,1245.677246 
	C1827.122925,1244.786133 1835.854492,1244.278809 1845.009399,1243.560669 
	C1821.797974,1218.403320 1781.002075,1202.076782 1743.552734,1207.424683 
	C1702.970703,1213.219971 1664.070435,1240.088989 1651.261475,1285.843872 
	C1646.481201,1302.919312 1646.280029,1319.893188 1653.933716,1336.297485 
	C1658.317505,1345.693604 1666.486938,1349.907471 1676.400391,1350.158813 
	C1685.776123,1350.396606 1692.030640,1344.871094 1695.455566,1336.603882 
	C1702.799683,1318.876343 1713.473389,1303.415283 1727.448364,1288.452759 
M1932.966675,1249.686523 
	C1927.093506,1251.657349 1921.220337,1253.628052 1913.560059,1256.198486 
	C1917.419800,1258.110596 1919.154297,1259.025024 1920.933228,1259.842896 
	C1947.870728,1272.226562 1969.921997,1290.416870 1986.011230,1315.411743 
	C2001.865723,1340.042114 2009.941406,1367.054565 2009.681396,1396.463623 
	C2009.591797,1406.598877 2013.413452,1414.759033 2022.919556,1419.166016 
	C2031.516479,1423.151733 2044.375366,1420.224121 2051.488281,1413.082520 
	C2064.015625,1400.505127 2069.828125,1384.845093 2071.664795,1367.572388 
	C2075.709229,1329.540039 2062.151123,1298.144043 2033.757446,1273.491089 
	C2005.130615,1248.635498 1972.110107,1239.035034 1932.966675,1249.686523 
M2140.828613,1071.757812 
	C2105.176514,1056.717163 2058.570312,1067.090698 2037.077271,1094.427979 
	C2045.978882,1118.044189 2054.760498,1141.342041 2063.538574,1164.630493 
	C2067.015137,1161.272095 2070.679932,1157.930542 2074.121582,1154.373657 
	C2087.239746,1140.817505 2102.705566,1130.703735 2119.988525,1123.397217 
	C2126.678223,1120.569092 2133.800049,1118.782349 2140.599365,1116.190796 
	C2154.947754,1110.722046 2160.243408,1097.435791 2152.836426,1084.033081 
	C2150.377686,1079.584229 2145.746582,1076.336060 2140.828613,1071.757812 
z"/>
<path fill="#FDFDFD" opacity="1.000000" stroke="none" 
	d="
M1207.006104,1778.264648 
	C1203.385010,1770.601807 1200.243408,1763.116943 1198.025879,1755.367554 
	C1193.190674,1738.469482 1188.825562,1721.437012 1184.180298,1704.132080 
	C1148.922119,1704.132080 1114.064819,1704.132080 1078.432983,1704.132080 
	C1071.786743,1728.653687 1065.136841,1753.188965 1058.427490,1777.943848 
	C1036.661621,1777.943848 1015.424500,1777.943848 992.581543,1777.943848 
	C1003.096619,1741.582886 1014.606812,1706.135742 1025.733032,1670.573853 
	C1037.032349,1634.459229 1048.273193,1598.326172 1059.472656,1562.180542 
	C1070.571289,1526.360840 1081.586426,1490.515259 1092.789795,1454.189697 
	C1118.621216,1454.189697 1144.509766,1454.189697 1171.298340,1454.189697 
	C1204.574097,1561.600342 1237.921509,1669.241821 1271.714722,1778.322754 
	C1249.585449,1778.322754 1228.745117,1778.322754 1207.006104,1778.264648 
M1092.031250,1651.738525 
	C1093.084106,1656.384277 1096.859497,1654.195557 1099.266846,1654.220215 
	C1119.591675,1654.429688 1139.919800,1654.339600 1160.246826,1654.339600 
	C1163.513672,1654.339600 1166.780396,1654.339600 1171.190674,1654.339600 
	C1157.811157,1604.714111 1144.733643,1556.208618 1131.046753,1505.443237 
	C1126.897705,1520.881958 1123.366211,1534.001343 1119.846436,1547.124023 
	C1110.649536,1581.412720 1101.457642,1615.702515 1092.031250,1651.738525 
z"/>
<path fill="#FEFEFE" opacity="1.000000" stroke="none" 
	d="
M718.163818,972.267090 
	C692.417480,990.900879 663.799500,997.886841 633.241272,998.293701 
	C618.652039,998.487976 604.058105,998.327148 588.471802,998.327148 
	C588.471802,1036.599243 588.471802,1074.055908 588.471802,1111.912109 
	C566.612244,1111.912109 545.752502,1111.912109 524.278076,1111.912109 
	C524.278076,1003.062805 524.278076,894.268738 524.278076,784.870056 
	C526.839661,784.692139 529.404114,784.361450 531.968872,784.358887 
	C566.632019,784.324585 601.309875,783.717407 635.953613,784.536804 
	C662.385559,785.162109 688.041809,790.567383 711.137512,804.391113 
	C732.478149,817.164429 746.165894,835.983459 751.396179,860.183838 
	C756.826233,885.309021 756.117004,910.332642 746.277771,934.590393 
	C740.277710,949.383057 731.115417,961.778076 718.163818,972.267090 
M588.324402,906.999512 
	C588.324402,920.904480 588.324402,934.809448 588.324402,949.747559 
	C608.479370,949.133972 627.773865,951.681030 646.726746,947.400330 
	C663.036133,943.716675 676.248291,935.352539 682.358887,918.677673 
	C688.337830,902.361755 689.483643,885.806641 684.690186,868.945557 
	C680.277344,853.423157 670.784668,842.287964 655.339600,837.651978 
	C645.294006,834.636658 634.700012,832.848206 624.231079,832.002502 
	C612.476624,831.053040 600.586304,831.784241 588.324402,831.784241 
	C588.324402,857.094116 588.324402,881.046936 588.324402,906.999512 
z"/>
<path fill="#FDFDFD" opacity="1.000000" stroke="none" 
	d="
M699.354248,1466.439575 
	C708.508606,1473.100586 717.019836,1479.407837 726.088257,1486.128174 
	C714.996704,1498.888306 704.674500,1510.763306 694.070618,1522.962280 
	C689.876587,1520.041260 686.363281,1517.643555 682.900940,1515.174561 
	C662.958984,1500.953979 640.736877,1494.541504 616.302734,1495.671143 
	C606.550720,1496.121948 597.535217,1498.800049 588.784607,1503.289307 
	C569.650208,1513.106323 566.457031,1546.523804 585.829956,1559.907959 
	C596.370789,1567.190186 607.985413,1571.889771 619.911377,1576.059570 
	C641.527405,1583.616943 663.708313,1589.688232 684.000671,1600.697266 
	C705.765503,1612.505249 723.580078,1628.119873 730.221375,1652.939331 
	C739.298828,1686.862671 735.958008,1718.887817 712.320374,1746.671387 
	C697.346985,1764.270874 677.734680,1774.524414 655.640137,1779.907471 
	C616.494507,1789.444580 578.051880,1786.846069 540.578308,1771.758179 
	C525.925049,1765.858643 507.772888,1753.505981 493.919769,1739.857178 
	C504.552094,1727.837402 515.231567,1715.764282 526.406677,1703.130859 
	C531.778687,1706.916992 536.858826,1710.465820 541.906372,1714.060303 
	C563.499695,1729.437134 587.672485,1736.567749 614.021179,1735.544312 
	C630.606628,1734.900024 645.793396,1730.484375 657.999573,1717.722656 
	C670.391113,1704.767212 675.552856,1669.632324 652.093201,1655.139893 
	C642.300293,1649.090210 631.485413,1644.491333 620.738403,1640.234741 
	C602.234619,1632.906006 583.028870,1627.250610 564.841553,1619.248047 
	C545.130066,1610.575073 527.709717,1598.182007 517.110535,1578.540771 
	C499.481995,1545.873535 502.605682,1490.987427 548.954041,1463.746338 
	C567.138062,1453.058716 586.883728,1447.616089 607.577332,1446.536011 
	C634.649780,1445.123047 661.298706,1448.122559 686.331604,1459.715332 
	C690.539185,1461.663818 694.588562,1463.953735 699.354248,1466.439575 
z"/>
<path fill="#FEFEFE" opacity="1.000000" stroke="none" 
	d="
M1120.927002,1063.494263 
	C1163.063599,1063.643799 1204.278442,1063.643799 1245.909912,1063.643799 
	C1245.909912,1080.039307 1245.909912,1095.560791 1245.909912,1111.705688 
	C1182.142944,1111.705688 1118.405273,1111.705688 1054.166504,1111.705688 
	C1054.166504,1002.876282 1054.166504,894.123840 1054.166504,784.854126 
	C1117.622681,784.854126 1180.794556,784.854126 1245.053223,784.854126 
	C1242.877319,800.520874 1240.716064,816.082581 1238.443481,832.445068 
	C1198.265015,832.445068 1158.766357,832.445068 1118.842285,832.445068 
	C1118.842285,862.474670 1118.842285,891.595642 1118.842285,921.350098 
	C1153.210205,921.350098 1187.080200,921.350098 1221.639404,921.350098 
	C1221.639404,937.431763 1221.639404,952.906067 1221.639404,969.361206 
	C1187.732666,969.361206 1153.588989,969.361206 1118.925171,969.361206 
	C1118.685181,972.853455 1118.359497,975.417786 1118.355713,977.982605 
	C1118.317383,1003.301453 1118.274536,1028.620605 1118.406372,1053.938843 
	C1118.422729,1057.076782 1119.447632,1060.209595 1120.927002,1063.494263 
z"/>
<path fill="#FDFDFD" opacity="1.000000" stroke="none" 
	d="
M867.667847,915.590698 
	C867.788574,918.829773 867.355347,921.499878 870.842773,921.603699 
	C873.838440,921.692871 876.838013,921.668335 879.835815,921.668762 
	C907.153198,921.672668 934.470581,921.671021 961.787964,921.671021 
	C965.040283,921.671021 968.292542,921.671021 971.796448,921.671021 
	C971.796448,937.973022 971.796448,953.418884 971.796448,969.572144 
	C937.090698,969.572144 902.914917,969.572144 868.205994,969.572144 
	C868.205994,1001.065369 868.205994,1031.850464 868.205994,1063.326660 
	C910.623108,1063.326660 952.804749,1063.326660 995.659302,1063.326660 
	C995.659302,1079.755005 995.659302,1095.514771 995.659302,1111.806152 
	C931.948669,1111.806152 868.211487,1111.806152 804.158813,1111.806152 
	C804.158813,1002.697205 804.158813,893.953125 804.158813,784.771729 
	C867.476929,784.771729 930.301392,784.771729 994.667786,784.771729 
	C992.441589,800.652893 990.271790,816.131348 988.006470,832.291504 
	C947.867676,832.291504 908.343689,832.291504 867.666321,832.291504 
	C867.666321,860.242371 867.666321,887.435120 867.667847,915.590698 
z"/>
<path fill="#FEFEFE" opacity="1.000000" stroke="none" 
	d="
M785.665955,1545.999756 
	C785.665955,1515.025391 785.665955,1485.051147 785.665955,1454.375244 
	C848.379333,1454.375244 910.807922,1454.375244 974.366028,1454.375244 
	C972.210083,1469.641479 970.061218,1484.857178 967.717102,1501.455811 
	C957.835144,1501.886597 947.978760,1501.602295 938.145691,1501.652832 
	C928.148254,1501.704102 918.150452,1501.664307 908.152771,1501.664307 
	C898.488342,1501.664307 888.823914,1501.664307 879.159485,1501.664307 
	C869.224121,1501.664307 859.288757,1501.664307 848.852478,1501.664307 
	C848.852478,1530.982056 848.852478,1559.524780 848.852478,1589.492920 
	C859.797791,1589.863647 870.984680,1589.621826 882.154480,1589.663208 
	C893.818237,1589.706421 905.482361,1589.672974 917.146301,1589.672974 
	C928.443970,1589.672974 939.741638,1589.672974 951.684631,1589.672974 
	C951.684631,1605.499756 951.684631,1620.940552 951.684631,1637.533691 
	C917.397278,1637.533691 883.282593,1637.533691 848.762207,1637.533691 
	C848.762207,1668.846558 848.762207,1699.016235 848.762207,1730.219727 
	C891.181702,1730.219727 933.297058,1730.219727 975.866028,1730.219727 
	C975.866028,1746.461792 975.866028,1761.684326 975.866028,1777.618896 
	C912.987061,1777.618896 849.914185,1777.618896 785.665955,1777.618896 
	C785.665955,1700.712891 785.665955,1623.856323 785.665955,1545.999756 
z"/>
<path fill="#FDFDFD" opacity="1.000000" stroke="none" 
	d="
M1496.602051,1078.840698 
	C1494.963623,1090.436035 1493.545776,1101.168457 1492.110962,1112.030396 
	C1429.307373,1112.030396 1367.410767,1112.030396 1304.923340,1112.030396 
	C1304.923340,1002.976135 1304.923340,894.220459 1304.923340,784.898315 
	C1325.684448,784.898315 1346.198608,784.898315 1368.181519,784.898315 
	C1368.505615,795.778870 1368.291748,806.941711 1368.328491,818.089233 
	C1368.366943,829.751099 1368.337036,841.413269 1368.337036,853.075256 
	C1368.337036,864.404053 1368.337036,875.732910 1368.337036,887.061707 
	C1368.337036,898.723694 1368.337036,910.385742 1368.337036,922.047729 
	C1368.337036,933.376526 1368.337036,944.705383 1368.337036,956.034180 
	C1368.337036,967.362976 1368.337036,978.691833 1368.337036,990.020630 
	C1368.337036,1001.682617 1368.337036,1013.344604 1368.337036,1025.006592 
	C1368.337036,1036.243896 1368.337158,1047.481201 1368.337158,1059.580322 
	C1412.502441,1059.580322 1455.679932,1059.580322 1499.244019,1059.580322 
	C1498.356201,1066.325806 1497.589478,1072.151855 1496.602051,1078.840698 
z"/>
<path fill="#FFFFFF" opacity="1.000000" stroke="none" 
	d="
M1305.672363,1468.068848 
	C1305.672363,1463.091431 1305.672363,1459.107300 1305.672363,1454.401611 
	C1326.326050,1454.401611 1346.750244,1454.401611 1368.133057,1454.401611 
	C1368.133057,1544.300537 1368.133057,1634.381226 1368.133057,1725.431152 
	C1411.853760,1725.431152 1454.641724,1725.431152 1498.587646,1725.431152 
	C1496.109497,1743.403564 1493.783325,1760.273682 1491.379272,1777.709473 
	C1429.662476,1777.709473 1368.231934,1777.709473 1305.672363,1777.709473 
	C1305.672363,1674.699829 1305.672363,1571.881104 1305.672363,1468.068848 
z"/>
<path fill="#F6FE67" opacity="1.000000" stroke="none" 
	d="
M980.098511,1327.834106 
	C976.151062,1281.430298 978.129761,1234.923218 977.674011,1188.458618 
	C977.642090,1185.200073 977.669861,1181.941040 977.669861,1178.187378 
	C990.591858,1178.187378 1002.760193,1178.187378 1014.720215,1179.617554 
	C1014.317261,1184.680420 1013.955139,1188.313110 1013.953003,1191.945923 
	C1013.917969,1252.751343 1013.934753,1313.556641 1013.910950,1374.362061 
	C1013.909546,1378.006226 1013.663696,1381.650513 1013.531616,1385.294678 
	C996.651611,1385.294678 979.771729,1385.294678 962.354858,1385.294678 
	C941.360413,1335.617432 920.370300,1285.950317 898.857849,1235.001709 
	C896.872192,1229.687256 895.408813,1225.654419 893.945496,1221.621582 
	C893.349487,1230.612305 894.129272,1239.109619 895.065186,1247.589722 
	C895.817627,1254.406860 896.759155,1261.203003 897.590637,1268.945068 
	C897.546631,1308.353394 897.528687,1346.824951 897.510742,1385.296631 
	C885.948853,1385.296631 874.386963,1385.296631 862.251709,1385.296631 
	C862.251709,1316.158936 862.251709,1247.442993 862.251709,1177.781982 
	C878.609863,1177.781982 894.811035,1177.781982 911.832886,1178.842041 
	C918.482910,1193.936890 924.247314,1207.999390 930.230652,1221.968140 
	C930.918213,1223.573364 932.827942,1224.655151 934.171021,1225.979492 
	C934.171082,1225.979492 934.030884,1225.990479 933.960815,1226.694580 
	C934.210815,1232.478760 935.218933,1237.215454 940.171997,1239.983154 
	C940.171997,1239.983154 940.031311,1239.989868 939.965210,1240.693726 
	C940.220581,1246.475586 941.260193,1251.195557 946.173645,1253.984375 
	C946.173645,1253.984375 946.032471,1253.988892 945.972473,1254.692383 
	C946.229248,1260.473389 947.300110,1265.175903 952.174255,1267.987061 
	C952.174255,1267.987061 952.032654,1267.988159 951.978149,1268.712891 
	C952.422729,1271.661987 952.611572,1274.015381 953.473572,1276.088745 
	C957.645142,1286.122925 961.869568,1296.139404 966.319458,1306.052490 
	C971.419800,1317.414795 976.777039,1328.661499 982.141907,1340.160645 
	C982.261169,1340.363037 982.743286,1340.443604 982.743286,1340.443604 
	C982.743286,1340.443604 981.955811,1340.026611 981.974365,1339.297852 
	C981.361450,1334.990845 980.729980,1331.412476 980.098511,1327.834106 
z"/>
<path fill="#F6FE67" opacity="1.000000" stroke="none" 
	d="
M619.110291,1277.795654 
	C621.056824,1278.302368 623.003418,1278.809082 625.969116,1280.175293 
	C628.129700,1281.292114 629.271118,1281.549561 630.412476,1281.807007 
	C630.412476,1281.807007 630.064514,1281.919434 630.369141,1282.311523 
	C631.908020,1283.070312 633.142151,1283.437134 634.376343,1283.803955 
	C634.376343,1283.803955 634.067993,1283.851807 634.286743,1284.374512 
	C636.518494,1285.737305 638.531433,1286.577271 640.544434,1287.417236 
	C640.544434,1287.417236 640.278137,1287.640503 640.360107,1288.201904 
	C643.710144,1293.687012 647.989380,1298.218628 650.076172,1303.600342 
	C660.705688,1331.013184 653.102966,1366.830688 616.598694,1377.743408 
	C612.935120,1378.838623 609.522034,1380.771973 605.992676,1382.316284 
	C605.992676,1382.316284 605.926086,1382.195557 605.155029,1382.134766 
	C600.294312,1382.766113 596.204712,1383.458008 592.115112,1384.149902 
	C592.115112,1384.150024 592.067078,1384.057129 591.114197,1384.049561 
	C566.364868,1384.023071 542.568237,1383.960205 518.772156,1384.042847 
	C515.893494,1384.052856 513.017639,1384.849121 510.140472,1385.281128 
	C508.764496,1384.827271 506.551056,1384.719849 506.189667,1383.846436 
	C505.472961,1382.113892 505.675842,1379.958862 505.675323,1377.978394 
	C505.658783,1313.160522 505.661560,1248.342529 505.674164,1183.524658 
	C505.674469,1181.926147 505.817230,1180.327637 505.924286,1178.086182 
	C508.895142,1177.934570 511.446320,1177.695923 513.997864,1177.691528 
	C532.612244,1177.659424 551.226929,1177.607178 569.840942,1177.693359 
	C588.258179,1177.778687 606.020020,1181.215088 623.720825,1189.684937 
	C625.678589,1191.225220 626.884155,1191.636597 628.089783,1192.047852 
	C628.089783,1192.047852 627.960327,1192.061035 628.146362,1192.509521 
	C628.975525,1193.277100 629.618713,1193.595947 630.261902,1193.914795 
	C630.261902,1193.914795 630.012268,1193.833862 630.174438,1194.391357 
	C631.800598,1195.744751 633.264526,1196.540771 634.728455,1197.336914 
	C634.728455,1197.336914 634.492615,1197.499878 634.511841,1198.061035 
	C635.724731,1199.066406 636.918335,1199.510864 638.111877,1199.955322 
	C638.111877,1199.955322 638.001892,1199.996826 637.869751,1200.708252 
	C639.101257,1204.761841 640.382996,1208.139893 641.841492,1211.440063 
	C652.296082,1235.093994 641.680420,1261.936646 617.989990,1271.724976 
	C615.766541,1272.643677 613.608765,1273.721313 609.616638,1275.552612 
	C614.127686,1276.618408 616.619019,1277.207031 619.110291,1277.795654 
M590.687561,1210.898071 
	C576.483337,1205.047363 561.781982,1206.159302 546.572632,1206.852173 
	C546.572632,1226.097656 546.572632,1244.409180 546.572632,1263.542114 
	C548.901733,1262.885132 550.394104,1262.464111 553.750427,1262.306519 
	C561.659119,1262.098389 569.607788,1262.313843 577.465942,1261.570923 
	C586.535522,1260.713501 594.845398,1257.723267 600.163025,1249.504761 
	C608.730713,1236.263062 605.362000,1221.689819 590.687561,1210.898071 
M590.481018,1292.892944 
	C575.939087,1288.390015 561.264709,1290.092529 545.943359,1290.737915 
	C545.943359,1311.184692 545.959229,1330.420532 545.930969,1349.656494 
	C545.924683,1353.924927 548.488403,1354.502441 553.757996,1354.303345 
	C557.757446,1354.314819 561.777039,1354.588867 565.752197,1354.283936 
	C574.337708,1353.625244 583.031311,1353.332764 591.440735,1351.674072 
	C603.053589,1349.383545 611.186768,1340.370605 612.303711,1330.232910 
	C614.367981,1311.496582 608.718262,1301.665894 590.481018,1292.892944 
z"/>
<path fill="#F5FD66" opacity="1.000000" stroke="none" 
	d="
M666.418457,1385.260864 
	C662.715332,1386.250000 661.263550,1384.843628 662.361816,1381.194580 
	C664.752136,1373.252686 667.266174,1365.348267 669.725891,1357.427368 
	C688.033203,1298.473999 706.338135,1239.519897 724.667786,1180.573364 
	C724.856628,1179.966309 725.367310,1179.459473 726.330017,1177.980591 
	C742.239746,1177.980591 758.765320,1177.980591 775.706238,1179.437988 
	C778.839233,1190.438599 781.363831,1200.041626 784.306335,1209.515015 
	C801.117004,1263.635864 818.038330,1317.722534 834.879150,1371.833984 
	C836.028748,1375.527832 836.828186,1379.330566 838.133606,1384.420410 
	C833.289795,1384.420410 829.716614,1384.339844 826.148315,1384.436279 
	C817.560730,1384.668213 808.975403,1384.983032 800.389160,1385.264404 
	C796.480469,1386.293213 796.175354,1383.484131 795.459351,1380.829346 
	C792.360352,1369.339233 789.160461,1357.876099 785.987183,1346.406006 
	C785.370422,1344.176758 784.708252,1341.960083 783.427612,1338.332275 
	C763.664246,1336.715454 744.540405,1336.462402 725.415894,1336.373535 
	C723.919128,1336.366577 722.416992,1337.507690 720.917297,1338.115112 
	C720.917297,1338.115112 721.045837,1337.985229 720.286377,1337.882080 
	C713.289856,1338.184082 713.891846,1343.769165 712.796082,1347.467041 
	C709.231689,1359.495483 706.264282,1371.700928 702.915710,1384.412964 
	C698.174805,1384.412964 694.219849,1384.322998 690.270386,1384.431885 
	C682.318176,1384.650879 674.368896,1384.978149 666.418457,1385.260864 
M731.390442,1306.306763 
	C745.676697,1306.306763 759.962952,1306.306763 775.610107,1306.306763 
	C767.640625,1277.583496 759.951721,1249.871338 752.116455,1220.576294 
	C751.558472,1217.993530 753.200562,1214.643066 748.664307,1212.189819 
	C740.463806,1243.790527 732.435181,1274.708984 724.480103,1305.646362 
	C724.395325,1305.976318 725.274780,1306.554199 725.915710,1307.244263 
	C727.019653,1306.877319 728.240417,1306.471558 731.390442,1306.306763 
z"/>
<path fill="#F5FC67" opacity="1.000000" stroke="none" 
	d="
M1104.455688,1354.002197 
	C1131.076416,1354.002197 1157.697266,1354.002197 1185.066040,1354.002197 
	C1185.066040,1364.599976 1185.066040,1374.409302 1185.066040,1384.305664 
	C1178.255005,1386.148682 1080.405396,1386.810913 1062.356079,1384.992432 
	C1062.356079,1316.308105 1062.356079,1247.554077 1062.356079,1178.166992 
	C1063.837036,1178.009521 1065.397339,1177.699829 1066.957886,1177.698486 
	C1103.946045,1177.668579 1140.934082,1177.665405 1177.922241,1177.689941 
	C1179.570801,1177.691040 1181.219116,1177.998779 1182.667480,1179.441650 
	C1180.727539,1189.404663 1178.987793,1198.089966 1177.085938,1207.584106 
	C1152.093994,1208.154541 1127.321899,1207.342651 1101.906982,1208.054810 
	C1101.906982,1226.406250 1101.852295,1243.330688 1102.017456,1260.253052 
	C1102.029785,1261.514648 1103.616211,1262.760864 1104.470947,1264.014160 
	C1125.760620,1264.212036 1147.050171,1264.409912 1168.385010,1265.881226 
	C1168.061401,1275.952148 1167.692627,1284.749756 1167.281860,1294.547852 
	C1145.033325,1294.547852 1123.905396,1294.547852 1102.020264,1294.547852 
	C1102.020264,1314.145996 1101.984863,1332.685913 1102.123657,1351.224609 
	C1102.130615,1352.156250 1103.643921,1353.076538 1104.455688,1354.002197 
z"/>
<path fill="#F5FC67" opacity="1.000000" stroke="none" 
	d="
M1262.432007,1263.983643 
	C1280.165649,1264.099487 1297.899292,1264.200928 1315.632690,1264.343018 
	C1319.237305,1264.371826 1322.840454,1264.554321 1326.448730,1265.958496 
	C1326.103882,1276.031250 1325.754761,1284.811401 1325.366821,1294.565918 
	C1303.059204,1294.565918 1281.952026,1294.565918 1260.051880,1294.565918 
	C1260.051880,1314.117065 1260.016968,1332.633667 1260.153198,1351.149048 
	C1260.160278,1352.097778 1261.636841,1353.035645 1262.429321,1353.978638 
	C1289.041382,1353.978638 1315.653564,1353.978638 1343.041870,1353.978638 
	C1343.041870,1364.526978 1343.041870,1374.334473 1343.041870,1384.265015 
	C1336.242920,1386.231201 1244.024292,1387.021606 1221.183228,1385.206177 
	C1219.093140,1377.473145 1218.188354,1207.954712 1220.124756,1178.397705 
	C1222.203979,1178.164429 1224.397705,1177.706665 1226.591797,1177.703857 
	C1262.226318,1177.657837 1297.860718,1177.661865 1333.495239,1177.687378 
	C1335.477539,1177.688843 1337.459595,1177.975586 1339.720215,1179.688965 
	C1338.804077,1188.819336 1337.609375,1196.390137 1336.124512,1204.737549 
	C1332.818970,1206.266479 1329.810547,1207.637085 1326.787354,1207.670166 
	C1308.211182,1207.873901 1289.631714,1207.744995 1271.053589,1207.804077 
	C1267.560669,1207.815186 1264.068848,1208.173584 1259.943604,1208.407837 
	C1259.943604,1226.418335 1259.889893,1243.295654 1260.051025,1260.171021 
	C1260.063232,1261.449341 1261.602539,1262.713135 1262.432007,1263.983643 
z"/>
<path fill="#F4FC6A" opacity="1.000000" stroke="none" 
	d="
M1428.000000,1385.749023 
	C1411.061646,1385.748901 1395.123291,1385.748901 1379.329590,1385.748901 
	C1377.011475,1377.260498 1376.069824,1214.383423 1378.038574,1178.407349 
	C1391.375122,1178.407349 1404.766968,1178.407349 1419.219971,1178.407349 
	C1420.367920,1188.105469 1419.639160,1197.688721 1419.765259,1207.213257 
	C1419.893066,1216.864502 1419.793579,1226.518921 1419.793579,1236.171875 
	C1419.793579,1245.824829 1419.793579,1255.477783 1419.793579,1265.130737 
	C1419.793579,1274.450806 1419.793579,1283.770996 1419.793579,1293.091064 
	C1419.793579,1302.744019 1419.793579,1312.396973 1419.793579,1322.049927 
	C1419.793579,1331.614868 1419.793579,1341.179688 1419.793579,1351.564453 
	C1447.571655,1351.564453 1474.394531,1351.564453 1502.374146,1351.564453 
	C1500.793213,1363.166260 1499.344360,1373.799316 1497.716187,1385.749023 
	C1474.696899,1385.749023 1451.848511,1385.749023 1428.000000,1385.749023 
z"/>
<path fill="#ECEDDC" opacity="1.000000" stroke="none" 
	d="
M801.280396,1385.434814 
	C808.975403,1384.983032 817.560730,1384.668213 826.148315,1384.436279 
	C829.716614,1384.339844 833.289795,1384.420410 838.133606,1384.420410 
	C836.828186,1379.330566 836.028748,1375.527832 834.879150,1371.833984 
	C818.038330,1317.722534 801.117004,1263.635864 784.306335,1209.515015 
	C781.363831,1200.041626 778.839233,1190.438599 776.297485,1180.092041 
	C780.845642,1179.177246 780.707947,1183.023560 781.523132,1185.550537 
	C787.018311,1202.584229 792.336609,1219.675537 797.618347,1236.777222 
	C811.505737,1281.742920 825.359070,1326.719238 839.181458,1371.704956 
	C840.521973,1376.067749 841.552002,1380.526001 842.903015,1385.605103 
	C828.698669,1385.605103 815.435120,1385.605103 801.280396,1385.434814 
z"/>
<path fill="#ECEDDC" opacity="1.000000" stroke="none" 
	d="
M606.822388,1382.418701 
	C609.522034,1380.771973 612.935120,1378.838623 616.598694,1377.743408 
	C653.102966,1366.830688 660.705688,1331.013184 650.076172,1303.600342 
	C647.989380,1298.218628 643.710144,1293.687012 640.430054,1288.042847 
	C648.615540,1290.285034 652.801880,1297.174805 655.730591,1304.508423 
	C661.884766,1319.918823 661.493286,1335.547241 654.898865,1350.821045 
	C645.982666,1371.472046 628.056396,1378.889648 606.822388,1382.418701 
z"/>
<path fill="#ECEDDC" opacity="1.000000" stroke="none" 
	d="
M619.366089,1277.096680 
	C616.619019,1277.207031 614.127686,1276.618408 609.616638,1275.552612 
	C613.608765,1273.721313 615.766541,1272.643677 617.989990,1271.724976 
	C641.680420,1261.936646 652.296082,1235.093994 641.841492,1211.440063 
	C640.382996,1208.139893 639.101257,1204.761841 637.894348,1200.654907 
	C640.948608,1203.761719 644.785522,1207.242432 646.587463,1211.570312 
	C656.473389,1235.314819 649.239380,1263.656250 622.859985,1274.320068 
	C621.691650,1274.792358 620.697266,1275.695312 619.366089,1277.096680 
z"/>
<path fill="#FDFEE1" opacity="1.000000" stroke="none" 
	d="
M1014.438477,1385.264893 
	C1013.663696,1381.650513 1013.909546,1378.006226 1013.910950,1374.362061 
	C1013.934753,1313.556641 1013.917969,1252.751343 1013.953003,1191.945923 
	C1013.955139,1188.313110 1014.317261,1184.680420 1015.067871,1180.394287 
	C1015.864990,1182.367798 1016.315002,1184.994507 1016.316650,1187.621460 
	C1016.356018,1250.562012 1016.360718,1313.502441 1016.304749,1376.442993 
	C1016.302185,1379.373901 1015.679321,1382.304321 1014.438477,1385.264893 
z"/>
<path fill="#FDFEE1" opacity="1.000000" stroke="none" 
	d="
M1104.421875,1263.073730 
	C1103.616211,1262.760864 1102.029785,1261.514648 1102.017456,1260.253052 
	C1101.852295,1243.330688 1101.906982,1226.406250 1101.906982,1208.054810 
	C1127.321899,1207.342651 1152.093994,1208.154541 1177.085938,1207.584106 
	C1178.987793,1198.089966 1180.727539,1189.404663 1183.041504,1180.199951 
	C1182.617310,1189.725464 1181.618774,1199.770508 1180.577271,1210.248779 
	C1154.941650,1210.248779 1130.423096,1210.248779 1104.658691,1210.248779 
	C1104.555908,1219.257568 1104.419312,1227.736328 1104.373413,1236.215576 
	C1104.326660,1244.854614 1104.369141,1253.494141 1104.421875,1263.073730 
z"/>
<path fill="#ECEDDC" opacity="1.000000" stroke="none" 
	d="
M667.306946,1385.429199 
	C674.368896,1384.978149 682.318176,1384.650879 690.270386,1384.431885 
	C694.219849,1384.322998 698.174805,1384.412964 702.915710,1384.412964 
	C706.264282,1371.700928 709.231689,1359.495483 712.796082,1347.467041 
	C713.891846,1343.769165 713.289856,1338.184082 720.352905,1337.944580 
	C716.752808,1353.696899 712.326721,1369.283325 707.694031,1385.597412 
	C694.552917,1385.597412 681.374207,1385.597412 667.306946,1385.429199 
z"/>
<path fill="#FDFEE1" opacity="1.000000" stroke="none" 
	d="
M1104.413452,1353.062744 
	C1103.643921,1353.076538 1102.130615,1352.156250 1102.123657,1351.224609 
	C1101.984863,1332.685913 1102.020264,1314.145996 1102.020264,1294.547852 
	C1123.905396,1294.547852 1145.033325,1294.547852 1167.281860,1294.547852 
	C1167.692627,1284.749756 1168.061401,1275.952148 1168.923096,1266.468506 
	C1169.845581,1275.586914 1170.275269,1285.391724 1170.743652,1296.081665 
	C1148.448730,1296.081665 1127.087524,1296.081665 1104.371216,1296.081665 
	C1104.371216,1315.312134 1104.371216,1333.717773 1104.413452,1353.062744 
z"/>
<path fill="#FDFEE1" opacity="1.000000" stroke="none" 
	d="
M1262.396729,1353.041138 
	C1261.636841,1353.035645 1260.160278,1352.097778 1260.153198,1351.149048 
	C1260.016968,1332.633667 1260.051880,1314.117065 1260.051880,1294.565918 
	C1281.952026,1294.565918 1303.059204,1294.565918 1325.366821,1294.565918 
	C1325.754761,1284.811401 1326.103882,1276.031250 1326.953857,1266.585571 
	C1327.454590,1275.760498 1327.454590,1285.600952 1327.454590,1296.076294 
	C1306.368896,1296.076294 1285.165894,1296.076294 1262.678223,1296.076294 
	C1262.054688,1305.769287 1262.440796,1314.968262 1262.372681,1324.133911 
	C1262.303345,1333.456665 1262.361572,1342.780396 1262.396729,1353.041138 
z"/>
<path fill="#FDFEE1" opacity="1.000000" stroke="none" 
	d="
M1262.398193,1263.045776 
	C1261.602539,1262.713135 1260.063232,1261.449341 1260.051025,1260.171021 
	C1259.889893,1243.295654 1259.943604,1226.418335 1259.943604,1208.407837 
	C1264.068848,1208.173584 1267.560669,1207.815186 1271.053589,1207.804077 
	C1289.631714,1207.744995 1308.211182,1207.873901 1326.787354,1207.670166 
	C1329.810547,1207.637085 1332.818970,1206.266479 1336.521362,1204.758789 
	C1337.208496,1204.003296 1338.007690,1203.990112 1338.007690,1203.990112 
	C1338.007690,1205.625122 1338.007690,1207.260254 1338.007690,1209.868164 
	C1313.240234,1209.868164 1288.550537,1209.868164 1262.374023,1209.868164 
	C1262.345093,1227.900024 1262.356567,1245.004028 1262.398193,1263.045776 
z"/>
<path fill="#ECEDDC" opacity="1.000000" stroke="none" 
	d="
M982.022705,1339.958374 
	C976.777039,1328.661499 971.419800,1317.414795 966.319458,1306.052490 
	C961.869568,1296.139404 957.645142,1286.122925 953.473572,1276.088745 
	C952.611572,1274.015381 952.422729,1271.661987 952.000488,1268.645752 
	C958.689331,1282.437012 965.304565,1297.019043 971.911621,1311.604614 
	C974.213806,1316.687012 976.495911,1321.778564 979.442871,1327.349976 
	C980.729980,1331.412476 981.361450,1334.990845 981.994995,1339.284546 
	C981.996948,1339.999878 982.022705,1339.958374 982.022705,1339.958374 
z"/>
<path fill="#FDFDFD" opacity="1.000000" stroke="none" 
	d="
M898.418640,1385.265381 
	C897.528687,1346.824951 897.546631,1308.353394 898.118652,1268.967529 
	C899.023193,1268.040894 899.373535,1268.028442 899.723938,1268.015991 
	C899.926636,1271.307129 900.300964,1274.598145 900.305298,1277.889526 
	C900.347412,1310.086182 900.359070,1342.283081 900.281921,1374.479492 
	C900.273315,1378.065186 899.659668,1381.649170 898.418640,1385.265381 
z"/>
<path fill="#ECEDDC" opacity="1.000000" stroke="none" 
	d="
M899.790710,1267.116699 
	C899.373535,1268.028442 899.023193,1268.040894 898.144775,1268.031006 
	C896.759155,1261.203003 895.817627,1254.406860 895.065186,1247.589722 
	C894.129272,1239.109619 893.349487,1230.612305 893.945496,1221.621582 
	C895.408813,1225.654419 896.872192,1229.687256 898.599060,1234.196533 
	C898.937683,1240.240845 898.939270,1245.810669 899.109985,1251.375488 
	C899.261780,1256.325806 899.600952,1261.270264 899.790710,1267.116699 
z"/>
<path fill="#ECEDDC" opacity="1.000000" stroke="none" 
	d="
M934.205078,1225.219849 
	C932.827942,1224.655151 930.918213,1223.573364 930.230652,1221.968140 
	C924.247314,1207.999390 918.482910,1193.936890 912.760986,1179.218750 
	C914.752075,1181.490967 917.047119,1184.264893 918.446472,1187.434326 
	C923.865540,1199.707886 928.999207,1212.107544 934.205078,1225.219849 
z"/>
<path fill="#F4FC6A" opacity="1.000000" stroke="none" 
	d="
M511.047058,1385.484497 
	C513.017639,1384.849121 515.893494,1384.052856 518.772156,1384.042847 
	C542.568237,1383.960205 566.364868,1384.023071 591.098022,1384.099121 
	C589.577759,1384.701294 587.122375,1385.710693 584.663452,1385.719238 
	C560.427185,1385.803833 536.190308,1385.722290 511.047058,1385.484497 
z"/>
<path fill="#FDFEE1" opacity="1.000000" stroke="none" 
	d="
M721.951172,1338.193359 
	C722.416992,1337.507690 723.919128,1336.366577 725.415894,1336.373535 
	C744.540405,1336.462402 763.664246,1336.715454 783.283203,1337.578613 
	C763.513855,1338.244141 743.249390,1338.257935 721.951172,1338.193359 
z"/>
<path fill="#ECEDDC" opacity="1.000000" stroke="none" 
	d="
M1338.446777,1203.325806 
	C1338.007690,1203.990112 1337.208496,1204.003296 1336.811523,1203.982178 
	C1337.609375,1196.390137 1338.804077,1188.819336 1340.195068,1180.445557 
	C1340.793091,1181.802246 1341.721680,1184.019287 1341.494385,1186.110596 
	C1340.891602,1191.656616 1339.789429,1197.148193 1338.446777,1203.325806 
z"/>
<path fill="#ECEDDC" opacity="1.000000" stroke="none" 
	d="
M952.211182,1267.250977 
	C947.300110,1265.175903 946.229248,1260.473389 945.995789,1254.625732 
	C948.135498,1258.075317 950.191833,1262.295044 952.211182,1267.250977 
z"/>
<path fill="#ECEDDC" opacity="1.000000" stroke="none" 
	d="
M946.211914,1253.248535 
	C941.260193,1251.195557 940.220581,1246.475586 939.989502,1240.627563 
	C942.136719,1244.075928 944.193420,1248.294189 946.211914,1253.248535 
z"/>
<path fill="#ECEDDC" opacity="1.000000" stroke="none" 
	d="
M940.211304,1239.247559 
	C935.218933,1237.215454 934.210815,1232.478760 933.985718,1226.628784 
	C936.137268,1230.076538 938.193909,1234.294189 940.211304,1239.247559 
z"/>
<path fill="#F4FC6A" opacity="1.000000" stroke="none" 
	d="
M592.941406,1384.274048 
	C596.204712,1383.458008 600.294312,1382.766113 605.223511,1382.127686 
	C601.964661,1382.920288 597.866211,1383.659302 592.941406,1384.274048 
z"/>
<path fill="#ECEDDC" opacity="1.000000" stroke="none" 
	d="
M640.322449,1286.788818 
	C638.531433,1286.577271 636.518494,1285.737305 634.286804,1284.218506 
	C636.078918,1284.413208 638.089722,1285.286743 640.322449,1286.788818 
z"/>
<path fill="#ECEDDC" opacity="1.000000" stroke="none" 
	d="
M634.630127,1196.683594 
	C633.264526,1196.540771 631.800598,1195.744751 630.226318,1194.270752 
	C631.587952,1194.405396 633.059875,1195.217896 634.630127,1196.683594 
z"/>
<path fill="#ECEDDC" opacity="1.000000" stroke="none" 
	d="
M634.088989,1283.199829 
	C633.142151,1283.437134 631.908020,1283.070312 630.328125,1282.133301 
	C631.255493,1281.907227 632.528503,1282.251465 634.088989,1283.199829 
z"/>
<path fill="#ECEDDC" opacity="1.000000" stroke="none" 
	d="
M630.109863,1281.268921 
	C629.271118,1281.549561 628.129700,1281.292114 626.625610,1280.574951 
	C627.444336,1280.320435 628.625793,1280.525635 630.109863,1281.268921 
z"/>
<path fill="#ECEDDC" opacity="1.000000" stroke="none" 
	d="
M637.953247,1199.346191 
	C636.918335,1199.510864 635.724731,1199.066406 634.532593,1197.919189 
	C635.620972,1197.723145 636.707825,1198.230103 637.953247,1199.346191 
z"/>
<path fill="#ECEDDC" opacity="1.000000" stroke="none" 
	d="
M627.758118,1191.498047 
	C626.884155,1191.636597 625.678589,1191.225220 624.152466,1190.237305 
	C625.030090,1190.089966 626.228271,1190.519165 627.758118,1191.498047 
z"/>
<path fill="#ECEDDC" opacity="1.000000" stroke="none" 
	d="
M630.165466,1193.339111 
	C629.618713,1193.595947 628.975525,1193.277100 628.128662,1192.447021 
	C628.639648,1192.211670 629.354370,1192.487427 630.165466,1193.339111 
z"/>
<path fill="#010101" opacity="1.000000" stroke="none" 
	d="
M1688.046387,1535.911865 
	C1701.268311,1531.181519 1713.967041,1527.189331 1726.179932,1522.043823 
	C1751.858154,1511.225220 1774.477173,1495.523438 1794.821533,1476.597534 
	C1827.744141,1445.970337 1852.319580,1409.689453 1868.458496,1367.634155 
	C1876.906738,1345.618774 1883.720215,1317.223389 1886.369995,1288.018677 
	C1891.707275,1289.922119 1896.939941,1291.396118 1901.844360,1293.600464 
	C1936.350952,1309.109863 1959.369995,1334.630249 1968.592529,1371.681152 
	C1970.419189,1379.019165 1971.529175,1386.750488 1971.500854,1394.294922 
	C1971.418579,1416.302124 1978.490601,1434.647339 1996.517090,1448.088501 
	C1997.266235,1448.647095 1997.712402,1449.612183 1998.862671,1451.131348 
	C1993.324951,1461.010498 1988.009644,1471.304810 1981.960327,1481.148193 
	C1952.108032,1529.722778 1913.767212,1570.335083 1866.409180,1602.134766 
	C1820.249268,1633.130005 1769.592773,1653.118408 1714.708862,1662.286621 
	C1704.167969,1664.047485 1693.719849,1664.290894 1683.079102,1662.443848 
	C1657.583008,1658.017944 1638.228149,1638.588501 1634.359375,1610.125977 
	C1630.359253,1580.697266 1642.347656,1558.791138 1670.171875,1544.188965 
	C1675.754883,1541.258789 1681.586182,1538.802246 1688.046387,1535.911865 
z"/>
<path fill="#030301" opacity="1.000000" stroke="none" 
	d="
M1726.902100,1288.904053 
	C1713.473389,1303.415283 1702.799683,1318.876343 1695.455566,1336.603882 
	C1692.030640,1344.871094 1685.776123,1350.396606 1676.400391,1350.158813 
	C1666.486938,1349.907471 1658.317505,1345.693604 1653.933716,1336.297485 
	C1646.280029,1319.893188 1646.481201,1302.919312 1651.261475,1285.843872 
	C1664.070435,1240.088989 1702.970703,1213.219971 1743.552734,1207.424683 
	C1781.002075,1202.076782 1821.797974,1218.403320 1845.009399,1243.560669 
	C1835.854492,1244.278809 1827.122925,1244.786133 1818.430664,1245.677246 
	C1783.849121,1249.221924 1754.075562,1263.158936 1729.089966,1287.332764 
	C1728.620728,1287.786743 1727.999023,1288.083008 1726.902100,1288.904053 
z"/>
<path fill="#030301" opacity="1.000000" stroke="none" 
	d="
M1933.776611,1249.539917 
	C1972.110107,1239.035034 2005.130615,1248.635498 2033.757446,1273.491089 
	C2062.151123,1298.144043 2075.709229,1329.540039 2071.664795,1367.572388 
	C2069.828125,1384.845093 2064.015625,1400.505127 2051.488281,1413.082520 
	C2044.375366,1420.224121 2031.516479,1423.151733 2022.919556,1419.166016 
	C2013.413452,1414.759033 2009.591797,1406.598877 2009.681396,1396.463623 
	C2009.941406,1367.054565 2001.865723,1340.042114 1986.011230,1315.411743 
	C1969.921997,1290.416870 1947.870728,1272.226562 1920.933228,1259.842896 
	C1919.154297,1259.025024 1917.419800,1258.110596 1913.560059,1256.198486 
	C1921.220337,1253.628052 1927.093506,1251.657349 1933.776611,1249.539917 
z"/>
<path fill="#030301" opacity="1.000000" stroke="none" 
	d="
M2141.468750,1072.148438 
	C2145.746582,1076.336060 2150.377686,1079.584229 2152.836426,1084.033081 
	C2160.243408,1097.435791 2154.947754,1110.722046 2140.599365,1116.190796 
	C2133.800049,1118.782349 2126.678223,1120.569092 2119.988525,1123.397217 
	C2102.705566,1130.703735 2087.239746,1140.817505 2074.121582,1154.373657 
	C2070.679932,1157.930542 2067.015137,1161.272095 2063.538574,1164.630493 
	C2054.760498,1141.342041 2045.978882,1118.044189 2037.077271,1094.427979 
	C2058.570312,1067.090698 2105.176514,1056.717163 2141.468750,1072.148438 
z"/>
<path fill="#030303" opacity="1.000000" stroke="none" 
	d="
M1092.147461,1650.865234 
	C1101.457642,1615.702515 1110.649536,1581.412720 1119.846436,1547.124023 
	C1123.366211,1534.001343 1126.897705,1520.881958 1131.046753,1505.443237 
	C1144.733643,1556.208618 1157.811157,1604.714111 1171.190674,1654.339600 
	C1166.780396,1654.339600 1163.513672,1654.339600 1160.246826,1654.339600 
	C1139.919800,1654.339600 1119.591675,1654.429688 1099.266846,1654.220215 
	C1096.859497,1654.195557 1093.084106,1656.384277 1092.147461,1650.865234 
z"/>
<path fill="#030303" opacity="1.000000" stroke="none" 
	d="
M588.324402,905.999634 
	C588.324402,881.046936 588.324402,857.094116 588.324402,831.784241 
	C600.586304,831.784241 612.476624,831.053040 624.231079,832.002502 
	C634.700012,832.848206 645.294006,834.636658 655.339600,837.651978 
	C670.784668,842.287964 680.277344,853.423157 684.690186,868.945557 
	C689.483643,885.806641 688.337830,902.361755 682.358887,918.677673 
	C676.248291,935.352539 663.036133,943.716675 646.726746,947.400330 
	C627.773865,951.681030 608.479370,949.133972 588.324402,949.747559 
	C588.324402,934.809448 588.324402,920.904480 588.324402,905.999634 
z"/>
<path fill="#ECEDDC" opacity="1.000000" stroke="none" 
	d="
M981.976379,1340.013184 
	C981.955811,1340.026611 982.743286,1340.443604 982.743286,1340.443604 
	C982.743286,1340.443604 982.261169,1340.363037 982.141968,1340.160645 
	C982.022705,1339.958374 981.996948,1339.999878 981.976379,1340.013184 
z"/>
<path fill="#030301" opacity="1.000000" stroke="none" 
	d="
M591.442932,1293.934204 
	C608.718262,1301.665894 614.367981,1311.496582 612.303711,1330.232910 
	C611.186768,1340.370605 603.053589,1349.383545 591.440735,1351.674072 
	C583.031311,1353.332764 574.337708,1353.625244 565.752197,1354.283936 
	C561.777039,1354.588867 557.757446,1354.314819 552.772217,1353.235229 
	C551.786377,1332.440063 551.786377,1312.713013 551.786377,1291.849121 
	C565.906677,1292.591553 578.674805,1293.262817 591.442932,1293.934204 
z"/>
<path fill="#030301" opacity="1.000000" stroke="none" 
	d="
M591.523987,1212.016602 
	C605.362000,1221.689819 608.730713,1236.263062 600.163025,1249.504761 
	C594.845398,1257.723267 586.535522,1260.713501 577.465942,1261.570923 
	C569.607788,1262.313843 561.659119,1262.098389 552.768372,1261.235596 
	C551.786316,1243.448486 551.786316,1226.732300 551.786316,1208.968262 
	C566.007507,1210.059204 578.765747,1211.037964 591.523987,1212.016602 
z"/>
<path fill="#ECEDDC" opacity="1.000000" stroke="none" 
	d="
M591.105774,1211.457397 
	C578.765747,1211.037964 566.007507,1210.059204 551.786316,1208.968262 
	C551.786316,1226.732300 551.786316,1243.448486 551.836365,1261.104004 
	C550.394104,1262.464111 548.901733,1262.885132 546.572632,1263.542114 
	C546.572632,1244.409180 546.572632,1226.097656 546.572632,1206.852173 
	C561.781982,1206.159302 576.483337,1205.047363 591.105774,1211.457397 
z"/>
<path fill="#ECEDDC" opacity="1.000000" stroke="none" 
	d="
M590.961975,1293.413574 
	C578.674805,1293.262817 565.906677,1292.591553 551.786377,1291.849121 
	C551.786377,1312.713013 551.786377,1332.440063 551.836792,1353.106934 
	C548.488403,1354.502441 545.924683,1353.924927 545.930969,1349.656494 
	C545.959229,1330.420532 545.943359,1311.184692 545.943359,1290.737915 
	C561.264709,1290.092529 575.939087,1288.390015 590.961975,1293.413574 
z"/>
<path fill="#030303" opacity="1.000000" stroke="none" 
	d="
M752.262695,1222.159180 
	C759.951721,1249.871338 767.640625,1277.583496 775.610107,1306.306763 
	C759.962952,1306.306763 745.676697,1306.306763 730.502869,1305.369629 
	C733.371521,1290.357178 737.043945,1276.259033 740.907898,1262.213501 
	C744.588867,1248.833496 748.469727,1235.508423 752.262695,1222.159180 
z"/>
<path fill="#ECEDDC" opacity="1.000000" stroke="none" 
	d="
M752.189575,1221.367676 
	C748.469727,1235.508423 744.588867,1248.833496 740.907898,1262.213501 
	C737.043945,1276.259033 733.371521,1290.357178 729.538208,1305.249023 
	C728.240417,1306.471558 727.019653,1306.877319 725.915710,1307.244263 
	C725.274780,1306.554199 724.395325,1305.976318 724.480103,1305.646362 
	C732.435181,1274.708984 740.463806,1243.790527 748.664307,1212.189819 
	C753.200562,1214.643066 751.558472,1217.993530 752.189575,1221.367676 
z"/>
</svg>