<svg version="1.1" id="Layer_1" xmlns="http://www.w3.org/2000/svg" xmlns:xlink="http://www.w3.org/1999/xlink" x="0px" y="0px"
	 width="100%" viewBox="0 0 2560 2560" enable-background="new 0 0 2560 2560" xml:space="preserve">
<path fill="#262626" opacity="1.000000" stroke="none" 
	d="
M1612.000000,2562.000000 
	C1074.666626,2562.000000 538.333313,2562.000000 2.000000,2562.000000 
	C2.000000,1708.666626 2.000000,855.333313 2.000000,2.000000 
	C855.333313,2.000000 1708.666626,2.000000 2562.000000,2.000000 
	C2562.000000,855.333313 2562.000000,1708.666626 2562.000000,2562.000000 
	C2245.666748,2562.000000 1929.333374,2562.000000 1612.000000,2562.000000 
M332.873352,1574.999634 
	C332.873322,1670.993652 332.938721,1766.987793 332.735291,1862.981445 
	C332.720764,1869.834595 334.533600,1874.794312 339.401642,1879.691895 
	C343.928741,1884.246582 348.912140,1883.688965 354.136444,1883.689331 
	C601.793030,1883.704468 849.449585,1883.702637 1097.106201,1883.702515 
	C1302.431152,1883.702393 1507.756104,1883.685913 1713.081055,1883.713989 
	C1758.899170,1883.720337 1804.311279,1879.591553 1848.909302,1868.981323 
	C2006.784546,1831.421631 2130.045654,1744.474243 2217.429443,1607.739746 
	C2263.837402,1535.122925 2291.984375,1455.500122 2302.444092,1369.812622 
	C2307.585205,1327.695068 2308.558838,1285.465210 2306.530762,1243.073242 
	C2304.210693,1194.575684 2296.561523,1147.081055 2282.622314,1100.568726 
	C2228.421143,919.709473 2091.458008,776.861450 1911.371338,713.849792 
	C1847.251465,691.414490 1781.113770,681.498657 1713.163452,681.531067 
	C1260.181885,681.747070 807.200378,681.642822 354.218872,681.642700 
	C352.552277,681.642700 350.874634,681.767700 349.221283,681.620056 
	C345.308685,681.270386 342.526276,682.909607 339.436249,685.355286 
	C333.427216,690.111389 332.779602,696.065186 332.782166,703.035034 
	C332.888763,993.023132 332.873657,1283.011353 332.873352,1574.999634 
z"/>
<path fill="#F3FA65" opacity="1.000000" stroke="none" 
	d="
M332.873535,1573.999512 
	C332.873657,1283.011353 332.888763,993.023132 332.782166,703.035034 
	C332.779602,696.065186 333.427216,690.111389 339.436249,685.355286 
	C342.526276,682.909607 345.308685,681.270386 349.221283,681.620056 
	C350.874634,681.767700 352.552277,681.642700 354.218872,681.642700 
	C807.200378,681.642822 1260.181885,681.747070 1713.163452,681.531067 
	C1781.113770,681.498657 1847.251465,691.414490 1911.371338,713.849792 
	C2091.458008,776.861450 2228.421143,919.709473 2282.622314,1100.568726 
	C2296.561523,1147.081055 2304.210693,1194.575684 2306.530762,1243.073242 
	C2308.558838,1285.465210 2307.585205,1327.695068 2302.444092,1369.812622 
	C2291.984375,1455.500122 2263.837402,1535.122925 2217.429443,1607.739746 
	C2130.045654,1744.474243 2006.784546,1831.421631 1848.909302,1868.981323 
	C1804.311279,1879.591553 1758.899170,1883.720337 1713.081055,1883.713989 
	C1507.756104,1883.685913 1302.431152,1883.702393 1097.106201,1883.702515 
	C849.449585,1883.702637 601.793030,1883.704468 354.136444,1883.689331 
	C348.912140,1883.688965 343.928741,1884.246582 339.401642,1879.691895 
	C334.533600,1874.794312 332.720764,1869.834595 332.735291,1862.981445 
	C332.938721,1766.987793 332.873322,1670.993652 332.873535,1573.999512 
M2098.908203,1695.935913 
	C2101.052979,1693.837036 2103.205322,1691.745483 2105.341553,1689.638062 
	C2175.145020,1620.770386 2223.890381,1539.338135 2250.348145,1444.878906 
	C2275.501465,1355.077881 2277.998779,1263.819336 2261.997070,1172.531982 
	C2238.323730,1037.480225 2171.968262,926.357788 2065.435547,840.262512 
	C1963.812256,758.134583 1846.700195,717.905762 1716.030640,717.875854 
	C1270.767944,717.773987 825.505371,717.834595 380.242706,717.833130 
	C376.995880,717.833130 373.749054,717.833130 370.690369,717.833130 
	C368.432983,731.325684 369.046631,1839.781616 371.353363,1847.410767 
	C374.096405,1847.410767 377.050140,1847.410767 380.003876,1847.410767 
	C824.933228,1847.409668 1269.862671,1847.425659 1714.791992,1847.389160 
	C1782.381104,1847.383667 1848.023682,1836.257812 1911.473267,1812.602783 
	C1981.390259,1786.536255 2043.393188,1747.796509 2098.908203,1695.935913 
z"/>
<path fill="#272727" opacity="1.000000" stroke="none" 
	d="
M2098.405273,1696.436768 
	C2043.393188,1747.796509 1981.390259,1786.536255 1911.473267,1812.602783 
	C1848.023682,1836.257812 1782.381104,1847.383667 1714.791992,1847.389160 
	C1269.862671,1847.425659 824.933228,1847.409668 380.003876,1847.410767 
	C377.050140,1847.410767 374.096405,1847.410767 371.353363,1847.410767 
	C369.046631,1839.781616 368.432983,731.325684 370.690369,717.833130 
	C373.749054,717.833130 376.995880,717.833130 380.242706,717.833130 
	C825.505371,717.834595 1270.767944,717.773987 1716.030640,717.875854 
	C1846.700195,717.905762 1963.812256,758.134583 2065.435547,840.262512 
	C2171.968262,926.357788 2238.323730,1037.480225 2261.997070,1172.531982 
	C2277.998779,1263.819336 2275.501465,1355.077881 2250.348145,1444.878906 
	C2223.890381,1539.338135 2175.145020,1620.770386 2105.341553,1689.638062 
	C2103.205322,1691.745483 2101.052979,1693.837036 2098.405273,1696.436768 
M634.012756,1197.976196 
	C634.012756,1197.976196 634.182617,1197.984497 633.989380,1196.827515 
	C633.315063,1196.495361 632.640686,1196.163208 631.976196,1196.024292 
	C631.976196,1196.024292 632.169800,1196.019287 631.781494,1194.991943 
	C631.126343,1194.709473 630.471191,1194.427002 628.913025,1193.114624 
	C616.235657,1185.094727 602.117493,1180.863525 587.414490,1180.141724 
	C561.835327,1178.886108 536.196777,1178.830688 510.581665,1178.352539 
	C509.400177,1178.330566 508.204041,1179.093872 506.896271,1179.530884 
	C506.748322,1181.871704 506.516052,1183.837158 506.515442,1185.802612 
	C506.496338,1249.063965 506.497955,1312.325439 506.506989,1375.586792 
	C506.507263,1377.582153 506.066254,1379.839478 506.849335,1381.491943 
	C507.500458,1382.865723 509.651581,1383.528564 512.330139,1385.238159 
	C534.493469,1385.242798 556.662476,1385.535400 578.817322,1385.105591 
	C587.287964,1384.941284 595.726562,1383.123779 603.994202,1381.983154 
	C603.994202,1381.983154 603.915405,1382.167725 605.581604,1382.352051 
	C611.802490,1380.304810 618.023376,1378.257690 624.066162,1376.165771 
	C624.066162,1376.165771 624.044617,1376.348022 625.543579,1376.677490 
	C638.254639,1372.056030 647.955383,1363.931396 653.515747,1351.519043 
	C659.858643,1337.359619 660.378418,1322.616943 655.860046,1307.893799 
	C654.169312,1302.384766 652.105652,1296.596191 646.144470,1293.739624 
	C646.144470,1293.739624 646.305908,1293.880493 646.420654,1292.549438 
	C645.663879,1292.242188 644.907166,1291.934814 644.098938,1291.845581 
	C644.098938,1291.845581 644.321106,1291.874634 644.362244,1290.572998 
	C643.593018,1290.279663 642.823730,1289.986206 641.975159,1289.891968 
	C641.975159,1289.891968 642.175171,1289.968628 642.006653,1288.713257 
	C641.269043,1288.322266 640.531494,1287.931274 639.025146,1286.466187 
	C631.338013,1283.443481 623.650879,1280.420776 616.866272,1276.119995 
	C619.143188,1274.859253 621.363708,1273.481201 623.705811,1272.356201 
	C647.990845,1260.688843 657.213074,1232.877808 644.308716,1209.172729 
	C642.370483,1205.612305 638.792114,1202.944824 635.906372,1200.014282 
	C635.906372,1200.014282 636.050964,1200.091797 636.137695,1198.850098 
	C635.433289,1198.502319 634.728821,1198.154419 634.012756,1197.976196 
M940.517578,1240.484253 
	C938.409180,1236.236450 936.300720,1231.988525 934.077209,1227.888184 
	C934.077209,1227.888184 934.232117,1227.992920 934.465576,1226.435669 
	C928.938660,1213.396973 923.458191,1200.338257 917.814392,1187.350342 
	C917.236694,1186.020752 915.680115,1185.116699 913.875122,1182.574341 
	C912.276428,1179.200806 909.720764,1178.106201 905.927185,1178.182007 
	C893.965027,1178.421021 881.994507,1178.213501 870.027832,1178.281616 
	C867.492798,1178.296143 864.960327,1178.746948 862.374207,1179.002075 
	C862.374207,1247.773315 862.374207,1315.812500 862.374207,1384.948486 
	C874.963989,1385.596069 887.081177,1386.232056 900.157959,1382.851196 
	C900.042664,1350.572754 899.927368,1318.294312 900.209351,1284.178711 
	C899.449158,1270.358521 898.590332,1256.542603 898.003174,1242.715088 
	C897.868652,1239.547119 898.669678,1236.339233 899.574768,1234.887817 
	C909.149536,1257.555176 918.695129,1280.234985 928.306824,1302.886719 
	C938.958191,1327.988892 949.693298,1353.055298 960.330811,1378.163330 
	C961.946716,1381.977539 963.530884,1385.530884 968.565613,1385.433838 
	C984.147095,1385.134155 999.729614,1384.885986 1016.186279,1382.797974 
	C1016.240540,1370.190552 1016.337219,1357.583130 1016.341553,1344.975708 
	C1016.359253,1293.212402 1016.387939,1241.448975 1016.257874,1189.686035 
	C1016.249512,1186.355469 1014.935486,1183.027954 1012.947510,1178.576294 
	C1001.724121,1178.576294 990.500671,1178.576294 978.661560,1178.576294 
	C978.472961,1182.544312 978.188416,1185.786011 978.185425,1189.027832 
	C978.162170,1214.350098 977.725220,1239.683960 978.347473,1264.991333 
	C978.895508,1287.278687 980.646301,1309.536377 980.386353,1330.262085 
	C977.635498,1325.445801 974.884705,1320.629639 972.058899,1315.937622 
	C972.058899,1315.937622 972.191711,1315.996094 972.417114,1314.439575 
	C967.704651,1304.176514 962.992126,1293.913452 958.127319,1283.843140 
	C958.127319,1283.843140 958.331848,1283.979248 958.614807,1282.466797 
	C956.496887,1278.202271 954.378967,1273.937866 952.115234,1269.851318 
	C952.115234,1269.851318 952.304138,1269.982666 952.581360,1268.472290 
	C950.468811,1264.211426 948.356262,1259.950562 946.101501,1255.856445 
	C946.101501,1255.856445 946.277954,1255.986328 946.551086,1254.478516 
	C944.440063,1250.223877 942.329041,1245.969116 940.089661,1241.872925 
	C940.089661,1241.872925 940.256775,1241.989746 940.517578,1240.484253 
M1180.814697,1178.536377 
	C1141.643799,1178.536377 1102.472778,1178.536377 1063.460205,1178.536377 
	C1061.361206,1191.129639 1061.875977,1377.369263 1063.998657,1384.808594 
	C1103.929688,1384.808594 1143.978638,1384.808594 1184.219238,1384.808594 
	C1184.219238,1374.642456 1184.219238,1365.198120 1184.219238,1354.752686 
	C1157.347778,1354.752686 1131.186890,1354.752686 1104.552002,1354.752686 
	C1104.552002,1334.663574 1104.552002,1315.591309 1104.552002,1295.949097 
	C1126.577759,1295.484619 1148.036133,1296.146362 1169.283691,1295.562500 
	C1169.283691,1284.903687 1169.283691,1275.708618 1169.283691,1265.636475 
	C1165.506592,1265.409058 1162.289673,1265.063965 1159.071167,1265.048096 
	C1146.085938,1264.983765 1133.099243,1265.113403 1120.115112,1264.975830 
	C1114.840942,1264.919922 1109.572266,1264.364746 1104.412476,1262.150391 
	C1104.412476,1245.012695 1104.412476,1227.875122 1104.412476,1209.837646 
	C1108.963135,1209.837646 1112.214233,1209.837769 1115.465454,1209.837646 
	C1132.713379,1209.836670 1149.961670,1209.895874 1167.208862,1209.781128 
	C1170.450806,1209.759644 1173.688354,1209.043945 1177.508911,1208.733521 
	C1177.508911,1208.733521 1178.014893,1208.435669 1179.564697,1207.899170 
	C1181.008789,1199.526001 1182.525024,1191.163696 1183.798828,1182.764648 
	C1183.945801,1181.795166 1182.744385,1180.620972 1180.814697,1178.536377 
M667.693359,1385.365601 
	C680.589966,1385.365601 693.486572,1385.365601 706.710388,1385.365601 
	C711.223083,1368.971069 715.503235,1353.421631 719.880127,1337.520386 
	C741.783630,1337.520386 762.737061,1337.520386 784.633606,1338.791504 
	C788.205688,1351.690063 791.734619,1364.600830 795.382751,1377.477905 
	C796.212524,1380.406738 795.836792,1384.421997 801.901794,1385.257812 
	C808.562927,1385.323120 815.223938,1385.413208 821.885254,1385.446777 
	C828.344604,1385.479248 834.804199,1385.453735 842.280396,1385.453735 
	C835.953125,1365.105835 830.121399,1346.425659 824.335693,1327.731201 
	C810.076721,1281.658203 795.906799,1235.557251 781.454285,1189.545166 
	C780.381714,1186.130249 781.111145,1181.162964 774.674744,1178.788940 
	C758.771179,1178.788940 742.867615,1178.788940 726.728455,1178.788940 
	C725.782288,1181.405762 724.785645,1183.858521 724.000549,1186.377441 
	C704.621521,1248.549927 685.261963,1310.728516 665.913818,1372.910645 
	C665.026428,1375.762573 663.998779,1378.622070 663.629578,1381.552856 
	C663.516418,1382.450928 665.384460,1383.598633 667.693359,1385.365601 
M2152.884277,1152.110474 
	C2177.565186,1142.598389 2192.771729,1125.268066 2193.633057,1098.356812 
	C2194.531738,1070.275024 2180.895752,1050.108643 2155.734375,1037.826904 
	C2144.252686,1032.222534 2132.011719,1028.961548 2119.310059,1027.894897 
	C2084.635742,1024.982544 2053.461182,1034.609375 2025.331299,1054.744141 
	C2022.683472,1056.639404 2020.061157,1058.570557 2017.171753,1060.670532 
	C2015.629028,1058.507935 2014.389160,1056.958252 2013.349609,1055.284058 
	C1999.068848,1032.287109 1982.962646,1010.640137 1964.462036,990.888123 
	C1899.452271,921.481445 1821.626831,875.067932 1726.939087,859.020630 
	C1677.857666,850.702515 1629.910767,879.790405 1615.259521,927.304260 
	C1602.668335,968.137756 1614.576904,1009.425903 1655.630615,1031.394531 
	C1666.983276,1037.469482 1679.307617,1041.994751 1691.578003,1046.044434 
	C1760.072632,1068.650391 1805.582764,1115.048706 1832.445557,1180.994141 
	C1833.251465,1182.972412 1833.610352,1185.132812 1834.535278,1188.517578 
	C1830.535156,1186.689087 1827.908081,1185.477905 1825.272705,1184.285156 
	C1806.585449,1175.827026 1787.144165,1170.698120 1766.531616,1169.673584 
	C1695.974121,1166.166260 1632.555908,1210.818359 1615.254150,1277.193726 
	C1608.547852,1302.921509 1609.238159,1328.059570 1620.089355,1352.408936 
	C1632.073730,1379.301270 1663.464478,1393.846191 1691.728027,1385.856689 
	C1710.673462,1380.501099 1722.948486,1367.542358 1730.753784,1349.877686 
	C1746.296143,1314.702393 1773.391846,1293.533203 1810.502075,1285.030396 
	C1822.752075,1282.223755 1835.296753,1280.694946 1848.700317,1283.749390 
	C1848.324219,1289.789429 1848.363403,1295.442505 1847.567749,1300.975464 
	C1838.881592,1361.381958 1811.756348,1412.015625 1766.352783,1452.744385 
	C1742.692749,1473.968262 1715.554321,1489.091797 1684.930908,1497.931274 
	C1666.172119,1503.345703 1648.987915,1512.076660 1633.658691,1524.176880 
	C1612.867188,1540.588745 1599.855225,1561.523926 1597.269043,1588.354004 
	C1590.731201,1656.176636 1640.438354,1710.097656 1712.175171,1700.868408 
	C1784.686890,1691.539185 1849.906860,1663.091797 1908.109741,1618.880005 
	C1961.024536,1578.685181 2002.029175,1528.502686 2031.823730,1469.180054 
	C2035.139526,1462.577881 2038.243896,1458.055908 2046.817749,1457.156616 
	C2058.217529,1455.961060 2068.164307,1449.956055 2076.527344,1441.846191 
	C2091.260254,1427.558838 2101.147705,1410.327271 2106.024658,1390.528198 
	C2115.201904,1353.272217 2111.085693,1317.199585 2090.628662,1284.718994 
	C2081.063721,1269.532227 2075.260010,1254.774048 2074.611816,1236.882324 
	C2074.246582,1226.808594 2075.172607,1217.982056 2079.909424,1209.192871 
	C2095.638672,1180.008057 2119.549316,1161.303955 2152.884277,1152.110474 
M1238.346680,1672.500122 
	C1215.843506,1599.799927 1193.340332,1527.099731 1170.833374,1454.387207 
	C1144.867554,1454.387207 1119.693604,1454.387207 1094.244751,1454.387207 
	C1060.846680,1561.679688 1027.566040,1668.595093 994.020447,1776.361816 
	C1015.726440,1776.361816 1036.510132,1776.361816 1058.113281,1776.361816 
	C1064.751953,1751.882446 1071.434692,1727.240234 1078.053345,1702.834595 
	C1114.205078,1702.834595 1149.692993,1702.834595 1185.164307,1702.834595 
	C1191.945923,1727.790039 1198.551514,1752.097778 1205.170532,1776.454956 
	C1227.144287,1776.454956 1248.286499,1776.454956 1270.648071,1776.454956 
	C1259.884644,1741.762451 1249.374634,1707.887451 1238.346680,1672.500122 
M696.921021,983.980713 
	C724.107239,971.124756 742.088257,950.507446 749.744812,921.225586 
	C753.927307,905.230286 754.562073,889.066833 752.523682,872.657593 
	C748.044006,836.596069 728.630737,812.097473 695.487488,798.074890 
	C675.575806,789.650452 654.615479,786.010864 633.141541,785.766541 
	C599.157593,785.379761 565.167664,785.498230 531.180237,785.459045 
	C529.330688,785.456909 527.480469,785.969238 525.761353,786.222778 
	C525.761353,895.037964 525.761353,1003.174683 525.761353,1111.133057 
	C546.597961,1111.133057 566.746948,1111.133057 587.775391,1111.133057 
	C587.775391,1073.255615 587.775391,1036.088745 587.775391,997.963379 
	C591.901062,997.963379 595.148132,997.983582 598.395020,997.959717 
	C610.723328,997.869202 623.065613,998.103088 635.376587,997.589417 
	C656.139282,996.723083 676.436646,993.339661 696.921021,983.980713 
M539.379150,1769.768311 
	C578.289795,1785.897339 618.275452,1788.439697 658.777649,1777.624023 
	C696.501282,1767.550415 728.782166,1740.845825 732.956726,1694.780762 
	C736.393066,1656.861084 724.296082,1625.809326 690.396362,1605.620361 
	C681.849426,1600.530273 672.861267,1595.968750 663.625122,1592.298706 
	C650.339966,1587.019775 636.475464,1583.203369 623.168762,1577.972656 
	C610.825256,1573.120361 598.413879,1568.079956 586.875061,1561.617554 
	C564.408752,1549.035522 566.234253,1511.149170 591.716370,1500.427124 
	C600.113281,1496.894043 609.615967,1494.873047 618.732910,1494.381226 
	C643.983459,1493.019409 666.513306,1501.397583 686.786621,1516.215332 
	C689.091797,1517.900146 691.480347,1519.470703 694.232178,1521.371948 
	C704.414368,1509.594604 714.131531,1498.355225 724.181946,1486.730225 
	C710.492676,1474.271606 696.107422,1464.342407 679.500610,1457.712646 
	C655.798035,1448.250000 631.124084,1445.862671 605.913269,1447.482422 
	C582.508911,1448.986084 560.888977,1455.673706 541.568176,1469.425415 
	C497.347992,1500.899170 496.018860,1571.605591 540.134583,1602.925293 
	C547.974182,1608.491089 556.155945,1613.969116 564.931580,1617.735840 
	C580.802246,1624.547485 597.314026,1629.848755 613.415894,1636.144287 
	C625.169189,1640.739746 637.070068,1645.192871 648.248657,1650.978149 
	C678.016235,1666.383911 673.629883,1710.869019 650.599304,1724.927979 
	C644.176025,1728.848999 636.951416,1732.190308 629.653259,1733.809692 
	C606.518799,1738.943848 583.745361,1736.240479 562.358154,1726.330200 
	C549.815002,1720.518066 538.247070,1712.601562 525.394897,1705.140869 
	C515.789124,1715.885620 505.456055,1727.443848 494.751953,1739.417114 
	C507.914246,1752.282837 522.310913,1761.639526 539.379150,1769.768311 
M1089.003906,1111.866821 
	C1140.655273,1111.765869 1192.306519,1111.665894 1243.957886,1111.541992 
	C1244.224243,1111.541382 1244.511841,1111.229736 1244.749756,1111.018677 
	C1244.997681,1110.798828 1245.197021,1110.524292 1245.407959,1110.284546 
	C1245.407959,1095.483276 1245.407959,1080.639771 1245.407959,1065.063965 
	C1202.417847,1064.588623 1159.969849,1065.264160 1117.027954,1064.684204 
	C1117.016235,1032.158936 1116.942749,1001.033447 1117.068359,969.048584 
	C1152.696167,969.048584 1186.892822,969.048584 1221.518433,969.048584 
	C1221.518433,953.343750 1221.518433,938.515198 1221.518433,922.490967 
	C1186.618896,922.490967 1152.163574,922.490967 1117.459595,922.490967 
	C1117.459595,891.775696 1117.459595,862.257874 1117.459595,831.689697 
	C1137.803345,831.689697 1157.710449,831.689697 1177.617676,831.689697 
	C1197.507324,831.689697 1217.397095,831.689697 1237.475586,831.689697 
	C1239.745361,815.701843 1241.838623,800.957947 1243.934448,786.195618 
	C1226.176880,784.209839 1061.703979,785.023193 1054.832275,787.030823 
	C1052.684814,820.339783 1053.757812,1103.746704 1056.203979,1111.866821 
	C1066.372925,1111.866821 1076.689575,1111.866821 1089.003906,1111.866821 
M911.000366,785.409607 
	C893.341858,785.409607 875.683350,785.384033 858.024902,785.416870 
	C840.204163,785.449951 822.375549,785.265015 804.759155,785.536926 
	C804.759155,895.035645 804.759155,1003.120056 804.759155,1111.250488 
	C868.596619,1111.250488 931.725586,1111.250488 995.305908,1111.250488 
	C995.305908,1095.796509 995.305908,1080.954346 995.305908,1064.867310 
	C952.497559,1064.867310 910.045837,1064.867310 867.247437,1064.867310 
	C867.247437,1032.511719 867.247437,1001.401733 867.247437,969.517273 
	C902.228088,968.819092 936.695068,969.807068 970.892456,968.982849 
	C970.892456,952.909119 970.892456,938.093323 970.892456,922.386475 
	C935.984192,922.386475 901.799377,922.386475 867.416199,922.386475 
	C867.416199,891.755859 867.416199,862.051392 867.416199,831.406860 
	C907.649902,831.406860 947.150757,831.406860 987.144043,831.406860 
	C989.352417,815.891052 991.438293,801.235657 993.690735,785.409607 
	C966.141174,785.409607 939.570801,785.409607 911.000366,785.409607 
M848.180603,1690.999023 
	C848.180603,1672.798218 848.180603,1654.597534 848.180603,1635.574951 
	C883.344727,1635.574951 917.197876,1635.574951 951.265747,1635.574951 
	C951.265747,1619.952881 951.265747,1605.191772 951.265747,1589.590332 
	C916.732849,1589.590332 882.885010,1589.590332 848.830627,1589.590332 
	C848.830627,1559.288208 848.830627,1529.843628 848.830627,1499.520508 
	C888.668213,1499.520508 927.864380,1499.520508 967.402283,1499.520508 
	C969.603455,1484.062500 971.687683,1469.425415 973.837708,1454.326416 
	C910.969238,1454.326416 849.130920,1454.326416 786.838623,1454.326416 
	C786.838623,1561.893433 786.838623,1668.970581 786.838623,1776.421631 
	C849.937256,1776.421631 912.455933,1776.421631 975.343506,1776.421631 
	C975.343506,1761.067993 975.343506,1746.250244 975.343506,1730.150146 
	C932.797546,1730.150146 890.734497,1730.150146 848.180603,1730.150146 
	C848.180603,1716.914062 848.180603,1704.956299 848.180603,1690.999023 
M1304.831787,819.007568 
	C1304.963379,915.953552 1305.094360,1012.899475 1305.249390,1109.845459 
	C1305.249878,1110.121460 1305.584717,1110.409546 1305.792114,1110.669067 
	C1305.990479,1110.916870 1306.226318,1111.134766 1306.240479,1111.149780 
	C1367.928223,1111.149780 1429.408325,1111.149780 1491.226318,1111.149780 
	C1493.554443,1094.139038 1495.790894,1077.797852 1498.176880,1060.363770 
	C1454.195312,1060.363770 1411.375854,1060.363770 1367.491821,1060.363770 
	C1367.491821,968.347046 1367.491821,877.285095 1367.491821,785.869019 
	C1346.224487,785.869019 1326.037476,785.869019 1304.831787,785.869019 
	C1304.831787,796.548523 1304.831787,806.780884 1304.831787,819.007568 
M1368.282959,1702.953735 
	C1368.282959,1620.133789 1368.282959,1537.313965 1368.282959,1454.673340 
	C1346.971680,1454.673340 1326.904541,1454.673340 1306.847900,1454.673340 
	C1306.847900,1562.301392 1306.847900,1669.111450 1306.847900,1776.256226 
	C1368.442627,1776.256226 1429.546021,1776.256226 1490.966675,1776.256226 
	C1493.270874,1759.540649 1495.486572,1743.468018 1497.888306,1726.044678 
	C1454.341919,1726.044678 1411.599487,1726.044678 1368.282959,1726.044678 
	C1368.282959,1718.174683 1368.282959,1711.555542 1368.282959,1702.953735 
M1220.334717,1223.000000 
	C1220.334717,1276.805420 1220.334717,1330.610718 1220.334717,1384.967407 
	C1261.561279,1384.967407 1301.340698,1384.967407 1341.668091,1384.967407 
	C1341.668091,1374.929077 1341.668091,1365.450073 1341.668091,1354.613770 
	C1314.838989,1354.613770 1288.416504,1354.613770 1261.801514,1354.613770 
	C1261.801514,1334.434326 1261.801514,1315.612671 1261.801514,1295.937256 
	C1283.478271,1295.937256 1304.668945,1295.937256 1326.427734,1295.937256 
	C1326.427734,1285.340088 1326.427734,1275.608643 1326.427734,1264.781860 
	C1304.532715,1264.781860 1283.400391,1264.781860 1262.470459,1264.781860 
	C1260.392944,1251.369629 1260.872681,1216.355347 1263.348389,1208.594238 
	C1287.550415,1208.594238 1312.071167,1208.594238 1337.261475,1208.594238 
	C1337.709473,1197.978638 1341.266357,1188.526855 1340.026367,1178.768311 
	C1299.803589,1178.768311 1260.622192,1178.768311 1220.334839,1178.768311 
	C1220.334839,1193.213379 1220.334839,1207.106812 1220.334717,1223.000000 
M1414.436523,1178.280884 
	C1402.589355,1178.362183 1390.715454,1177.825928 1378.896729,1178.623169 
	C1378.896729,1247.993164 1378.896729,1316.165771 1378.896729,1384.878540 
	C1418.244873,1384.878540 1457.004639,1384.878540 1496.597900,1384.878540 
	C1498.024902,1373.975342 1499.383789,1363.592407 1500.867920,1352.253418 
	C1472.849976,1351.715576 1446.067505,1352.392944 1418.587524,1351.863037 
	C1418.587524,1346.928345 1418.587524,1343.310425 1418.587524,1339.692383 
	C1418.587280,1289.699585 1418.635254,1239.706665 1418.489624,1189.714233 
	C1418.478760,1185.988647 1417.079224,1182.266968 1414.436523,1178.280884 
z"/>
<path fill="#F5FD65" opacity="1.000000" stroke="none" 
	d="
M2152.143555,1152.329224 
	C2119.549316,1161.303955 2095.638672,1180.008057 2079.909424,1209.192871 
	C2075.172607,1217.982056 2074.246582,1226.808594 2074.611816,1236.882324 
	C2075.260010,1254.774048 2081.063721,1269.532227 2090.628662,1284.718994 
	C2111.085693,1317.199585 2115.201904,1353.272217 2106.024658,1390.528198 
	C2101.147705,1410.327271 2091.260254,1427.558838 2076.527344,1441.846191 
	C2068.164307,1449.956055 2058.217529,1455.961060 2046.817749,1457.156616 
	C2038.243896,1458.055908 2035.139526,1462.577881 2031.823730,1469.180054 
	C2002.029175,1528.502686 1961.024536,1578.685181 1908.109741,1618.880005 
	C1849.906860,1663.091797 1784.686890,1691.539185 1712.175171,1700.868408 
	C1640.438354,1710.097656 1590.731201,1656.176636 1597.269043,1588.354004 
	C1599.855225,1561.523926 1612.867188,1540.588745 1633.658691,1524.176880 
	C1648.987915,1512.076660 1666.172119,1503.345703 1684.930908,1497.931274 
	C1715.554321,1489.091797 1742.692749,1473.968262 1766.352783,1452.744385 
	C1811.756348,1412.015625 1838.881592,1361.381958 1847.567749,1300.975464 
	C1848.363403,1295.442505 1848.324219,1289.789429 1848.700317,1283.749390 
	C1835.296753,1280.694946 1822.752075,1282.223755 1810.502075,1285.030396 
	C1773.391846,1293.533203 1746.296143,1314.702393 1730.753784,1349.877686 
	C1722.948486,1367.542358 1710.673462,1380.501099 1691.728027,1385.856689 
	C1663.464478,1393.846191 1632.073730,1379.301270 1620.089355,1352.408936 
	C1609.238159,1328.059570 1608.547852,1302.921509 1615.254150,1277.193726 
	C1632.555908,1210.818359 1695.974121,1166.166260 1766.531616,1169.673584 
	C1787.144165,1170.698120 1806.585449,1175.827026 1825.272705,1184.285156 
	C1827.908081,1185.477905 1830.535156,1186.689087 1834.535278,1188.517578 
	C1833.610352,1185.132812 1833.251465,1182.972412 1832.445557,1180.994141 
	C1805.582764,1115.048706 1760.072632,1068.650391 1691.578003,1046.044434 
	C1679.307617,1041.994751 1666.983276,1037.469482 1655.630615,1031.394531 
	C1614.576904,1009.425903 1602.668335,968.137756 1615.259521,927.304260 
	C1629.910767,879.790405 1677.857666,850.702515 1726.939087,859.020630 
	C1821.626831,875.067932 1899.452271,921.481445 1964.462036,990.888123 
	C1982.962646,1010.640137 1999.068848,1032.287109 2013.349609,1055.284058 
	C2014.389160,1056.958252 2015.629028,1058.507935 2017.171753,1060.670532 
	C2020.061157,1058.570557 2022.683472,1056.639404 2025.331299,1054.744141 
	C2053.461182,1034.609375 2084.635742,1024.982544 2119.310059,1027.894897 
	C2132.011719,1028.961548 2144.252686,1032.222534 2155.734375,1037.826904 
	C2180.895752,1050.108643 2194.531738,1070.275024 2193.633057,1098.356812 
	C2192.771729,1125.268066 2177.565186,1142.598389 2152.143555,1152.329224 
M1804.932251,1465.926392 
	C1773.286255,1498.160400 1736.220703,1521.264526 1692.619751,1533.942871 
	C1682.851074,1536.783325 1673.485718,1541.688477 1664.618652,1546.823853 
	C1639.185059,1561.554688 1629.802002,1584.053467 1634.145752,1612.802368 
	C1638.273071,1640.118164 1657.936523,1659.798340 1685.264282,1664.315308 
	C1697.718262,1666.373779 1709.791504,1664.804077 1721.911621,1662.346924 
	C1845.945801,1637.200562 1937.036743,1567.943359 1996.928833,1456.932129 
	C1998.143799,1454.680054 1999.014648,1452.242310 2000.156006,1449.640625 
	C1979.979736,1436.007690 1972.758057,1416.516846 1972.555542,1393.542480 
	C1972.505981,1387.908081 1972.184204,1382.157593 1971.008179,1376.670288 
	C1961.698608,1333.231689 1935.060913,1305.023315 1893.891846,1289.817017 
	C1891.531738,1288.945312 1888.995605,1288.550293 1885.593872,1287.695068 
	C1882.945801,1321.554810 1875.020264,1353.332764 1861.235840,1383.543213 
	C1847.427368,1413.806030 1829.004395,1440.952759 1804.932251,1465.926392 
M1694.303223,1341.156616 
	C1695.936157,1337.891113 1697.662231,1334.668457 1699.186035,1331.352783 
	C1706.488770,1315.462158 1716.153687,1301.191528 1728.778564,1289.078125 
	C1759.032593,1260.049072 1795.261108,1245.865601 1837.142578,1245.851685 
	C1840.522949,1245.850586 1844.187256,1247.021606 1848.287842,1244.401245 
	C1814.497559,1212.485962 1776.010986,1198.295532 1730.809692,1209.555908 
	C1686.920410,1220.489624 1659.110352,1248.598877 1649.056152,1293.116089 
	C1645.924683,1306.981201 1647.156982,1320.893677 1651.988281,1334.385742 
	C1658.078979,1351.394775 1682.186768,1358.796753 1694.303223,1341.156616 
M1915.287842,1258.629272 
	C1947.216675,1272.268066 1972.577881,1293.464722 1990.097290,1323.672485 
	C2003.467651,1346.726074 2009.140381,1371.781006 2009.478638,1398.230347 
	C2009.609009,1408.424072 2013.472168,1416.495117 2023.404785,1420.390381 
	C2033.238403,1424.246704 2042.954590,1422.938843 2050.378418,1415.632080 
	C2056.197266,1409.904663 2061.262695,1402.910400 2064.945557,1395.612427 
	C2074.260986,1377.153687 2075.537598,1357.379272 2072.166748,1337.153809 
	C2062.222900,1277.488281 1991.785278,1221.537720 1917.088013,1254.573608 
	C1915.838135,1255.126587 1915.087280,1256.807739 1915.287842,1258.629272 
M2058.606445,1154.345215 
	C2059.920410,1158.328735 2061.234375,1162.312256 2062.650879,1166.607178 
	C2064.102295,1165.822754 2065.168457,1165.564087 2065.746826,1164.887939 
	C2085.572266,1141.712280 2110.156494,1126.129761 2139.567139,1117.968018 
	C2148.871582,1115.385864 2155.611572,1109.495361 2156.960693,1099.461914 
	C2158.356445,1089.083618 2154.646484,1080.132202 2145.945557,1074.364136 
	C2140.515625,1070.764648 2134.169678,1067.895142 2127.834229,1066.422729 
	C2094.881592,1058.764404 2066.127197,1068.196411 2040.542358,1089.200806 
	C2038.571533,1090.818848 2037.004761,1092.929199 2036.045898,1093.957520 
	C2043.694702,1114.303223 2050.937500,1133.568726 2058.606445,1154.345215 
z"/>
<path fill="#FDFDFD" opacity="1.000000" stroke="none" 
	d="
M1238.605713,1673.256348 
	C1249.374634,1707.887451 1259.884644,1741.762451 1270.648071,1776.454956 
	C1248.286499,1776.454956 1227.144287,1776.454956 1205.170532,1776.454956 
	C1198.551514,1752.097778 1191.945923,1727.790039 1185.164307,1702.834595 
	C1149.692993,1702.834595 1114.205078,1702.834595 1078.053345,1702.834595 
	C1071.434692,1727.240234 1064.751953,1751.882446 1058.113281,1776.361816 
	C1036.510132,1776.361816 1015.726440,1776.361816 994.020447,1776.361816 
	C1027.566040,1668.595093 1060.846680,1561.679688 1094.244751,1454.387207 
	C1119.693604,1454.387207 1144.867554,1454.387207 1170.833374,1454.387207 
	C1193.340332,1527.099731 1215.843506,1599.799927 1238.605713,1673.256348 
M1095.520752,1636.306519 
	C1093.948364,1642.344849 1092.375854,1648.383057 1090.714111,1654.763794 
	C1118.338867,1654.763794 1145.020020,1654.763794 1172.666626,1654.763794 
	C1158.996948,1604.214233 1145.583740,1554.613037 1132.170532,1505.011841 
	C1131.597412,1505.044434 1131.024170,1505.076904 1130.450928,1505.109497 
	C1118.920410,1548.312256 1107.389893,1591.515137 1095.520752,1636.306519 
z"/>
<path fill="#FDFDFD" opacity="1.000000" stroke="none" 
	d="
M696.217957,984.257935 
	C676.436646,993.339661 656.139282,996.723083 635.376587,997.589417 
	C623.065613,998.103088 610.723328,997.869202 598.395020,997.959717 
	C595.148132,997.983582 591.901062,997.963379 587.775391,997.963379 
	C587.775391,1036.088745 587.775391,1073.255615 587.775391,1111.133057 
	C566.746948,1111.133057 546.597961,1111.133057 525.761353,1111.133057 
	C525.761353,1003.174683 525.761353,895.037964 525.761353,786.222778 
	C527.480469,785.969238 529.330688,785.456909 531.180237,785.459045 
	C565.167664,785.498230 599.157593,785.379761 633.141541,785.766541 
	C654.615479,786.010864 675.575806,789.650452 695.487488,798.074890 
	C728.630737,812.097473 748.044006,836.596069 752.523682,872.657593 
	C754.562073,889.066833 753.927307,905.230286 749.744812,921.225586 
	C742.088257,950.507446 724.107239,971.124756 696.217957,984.257935 
M631.426331,950.615845 
	C637.998352,949.608154 644.729004,949.191650 651.111633,947.478333 
	C668.067627,942.927063 679.809753,932.476318 684.962219,915.337891 
	C689.069336,901.676331 689.535034,887.731323 687.001160,873.809021 
	C683.381897,853.922791 671.542358,840.985168 652.147034,835.390686 
	C645.801025,833.560181 639.148560,832.206726 632.574097,831.878052 
	C619.943665,831.246643 607.268921,831.460510 594.612244,831.431885 
	C592.422913,831.426941 590.232361,831.954712 588.223938,832.213074 
	C588.223938,872.023193 588.223938,911.168030 588.223938,950.773132 
	C602.424927,950.773132 616.017212,950.773132 631.426331,950.615845 
z"/>
<path fill="#FCFCFC" opacity="1.000000" stroke="none" 
	d="
M538.692261,1769.455078 
	C522.310913,1761.639526 507.914246,1752.282837 494.751953,1739.417114 
	C505.456055,1727.443848 515.789124,1715.885620 525.394897,1705.140869 
	C538.247070,1712.601562 549.815002,1720.518066 562.358154,1726.330200 
	C583.745361,1736.240479 606.518799,1738.943848 629.653259,1733.809692 
	C636.951416,1732.190308 644.176025,1728.848999 650.599304,1724.927979 
	C673.629883,1710.869019 678.016235,1666.383911 648.248657,1650.978149 
	C637.070068,1645.192871 625.169189,1640.739746 613.415894,1636.144287 
	C597.314026,1629.848755 580.802246,1624.547485 564.931580,1617.735840 
	C556.155945,1613.969116 547.974182,1608.491089 540.134583,1602.925293 
	C496.018860,1571.605591 497.347992,1500.899170 541.568176,1469.425415 
	C560.888977,1455.673706 582.508911,1448.986084 605.913269,1447.482422 
	C631.124084,1445.862671 655.798035,1448.250000 679.500610,1457.712646 
	C696.107422,1464.342407 710.492676,1474.271606 724.181946,1486.730225 
	C714.131531,1498.355225 704.414368,1509.594604 694.232178,1521.371948 
	C691.480347,1519.470703 689.091797,1517.900146 686.786621,1516.215332 
	C666.513306,1501.397583 643.983459,1493.019409 618.732910,1494.381226 
	C609.615967,1494.873047 600.113281,1496.894043 591.716370,1500.427124 
	C566.234253,1511.149170 564.408752,1549.035522 586.875061,1561.617554 
	C598.413879,1568.079956 610.825256,1573.120361 623.168762,1577.972656 
	C636.475464,1583.203369 650.339966,1587.019775 663.625122,1592.298706 
	C672.861267,1595.968750 681.849426,1600.530273 690.396362,1605.620361 
	C724.296082,1625.809326 736.393066,1656.861084 732.956726,1694.780762 
	C728.782166,1740.845825 696.501282,1767.550415 658.777649,1777.624023 
	C618.275452,1788.439697 578.289795,1785.897339 538.692261,1769.455078 
z"/>
<path fill="#FBFBFB" opacity="1.000000" stroke="none" 
	d="
M1088.005005,1111.866821 
	C1076.689575,1111.866821 1066.372925,1111.866821 1056.203979,1111.866821 
	C1053.757812,1103.746704 1052.684814,820.339783 1054.832275,787.030823 
	C1061.703979,785.023193 1226.176880,784.209839 1243.934448,786.195618 
	C1241.838623,800.957947 1239.745361,815.701843 1237.475586,831.689697 
	C1217.397095,831.689697 1197.507324,831.689697 1177.617676,831.689697 
	C1157.710449,831.689697 1137.803345,831.689697 1117.459595,831.689697 
	C1117.459595,862.257874 1117.459595,891.775696 1117.459595,922.490967 
	C1152.163574,922.490967 1186.618896,922.490967 1221.518433,922.490967 
	C1221.518433,938.515198 1221.518433,953.343750 1221.518433,969.048584 
	C1186.892822,969.048584 1152.696167,969.048584 1117.068359,969.048584 
	C1116.942749,1001.033447 1117.016235,1032.158936 1117.027954,1064.684204 
	C1159.969849,1065.264160 1202.417847,1064.588623 1245.407959,1065.063965 
	C1245.407959,1080.639771 1245.407959,1095.483276 1245.407959,1110.284546 
	C1245.197021,1110.524292 1244.997681,1110.798828 1244.749756,1111.018677 
	C1244.511841,1111.229736 1244.224243,1111.541382 1243.957886,1111.541992 
	C1192.306519,1111.665894 1140.655273,1111.765869 1088.005005,1111.866821 
z"/>
<path fill="#FBFBFB" opacity="1.000000" stroke="none" 
	d="
M912.000427,785.409607 
	C939.570801,785.409607 966.141174,785.409607 993.690735,785.409607 
	C991.438293,801.235657 989.352417,815.891052 987.144043,831.406860 
	C947.150757,831.406860 907.649902,831.406860 867.416199,831.406860 
	C867.416199,862.051392 867.416199,891.755859 867.416199,922.386475 
	C901.799377,922.386475 935.984192,922.386475 970.892456,922.386475 
	C970.892456,938.093323 970.892456,952.909119 970.892456,968.982849 
	C936.695068,969.807068 902.228088,968.819092 867.247437,969.517273 
	C867.247437,1001.401733 867.247437,1032.511719 867.247437,1064.867310 
	C910.045837,1064.867310 952.497559,1064.867310 995.305908,1064.867310 
	C995.305908,1080.954346 995.305908,1095.796509 995.305908,1111.250488 
	C931.725586,1111.250488 868.596619,1111.250488 804.759155,1111.250488 
	C804.759155,1003.120056 804.759155,895.035645 804.759155,785.536926 
	C822.375549,785.265015 840.204163,785.449951 858.024902,785.416870 
	C875.683350,785.384033 893.341858,785.409607 912.000427,785.409607 
z"/>
<path fill="#FCFCFC" opacity="1.000000" stroke="none" 
	d="
M848.180603,1691.998779 
	C848.180603,1704.956299 848.180603,1716.914062 848.180603,1730.150146 
	C890.734497,1730.150146 932.797546,1730.150146 975.343506,1730.150146 
	C975.343506,1746.250244 975.343506,1761.067993 975.343506,1776.421631 
	C912.455933,1776.421631 849.937256,1776.421631 786.838623,1776.421631 
	C786.838623,1668.970581 786.838623,1561.893433 786.838623,1454.326416 
	C849.130920,1454.326416 910.969238,1454.326416 973.837708,1454.326416 
	C971.687683,1469.425415 969.603455,1484.062500 967.402283,1499.520508 
	C927.864380,1499.520508 888.668213,1499.520508 848.830627,1499.520508 
	C848.830627,1529.843628 848.830627,1559.288208 848.830627,1589.590332 
	C882.885010,1589.590332 916.732849,1589.590332 951.265747,1589.590332 
	C951.265747,1605.191772 951.265747,1619.952881 951.265747,1635.574951 
	C917.197876,1635.574951 883.344727,1635.574951 848.180603,1635.574951 
	C848.180603,1654.597534 848.180603,1672.798218 848.180603,1691.998779 
z"/>
<path fill="#FAFAFA" opacity="1.000000" stroke="none" 
	d="
M1304.831787,818.010437 
	C1304.831787,806.780884 1304.831787,796.548523 1304.831787,785.869019 
	C1326.037476,785.869019 1346.224487,785.869019 1367.491821,785.869019 
	C1367.491821,877.285095 1367.491821,968.347046 1367.491821,1060.363770 
	C1411.375854,1060.363770 1454.195312,1060.363770 1498.176880,1060.363770 
	C1495.790894,1077.797852 1493.554443,1094.139038 1491.226318,1111.149780 
	C1429.408325,1111.149780 1367.928223,1111.149780 1306.240479,1111.149780 
	C1306.226318,1111.134766 1305.990479,1110.916870 1305.792114,1110.669067 
	C1305.584717,1110.409546 1305.249878,1110.121460 1305.249390,1109.845459 
	C1305.094360,1012.899475 1304.963379,915.953552 1304.831787,818.010437 
z"/>
<path fill="#FDFDFD" opacity="1.000000" stroke="none" 
	d="
M1368.282959,1703.945068 
	C1368.282959,1711.555542 1368.282959,1718.174683 1368.282959,1726.044678 
	C1411.599487,1726.044678 1454.341919,1726.044678 1497.888306,1726.044678 
	C1495.486572,1743.468018 1493.270874,1759.540649 1490.966675,1776.256226 
	C1429.546021,1776.256226 1368.442627,1776.256226 1306.847900,1776.256226 
	C1306.847900,1669.111450 1306.847900,1562.301392 1306.847900,1454.673340 
	C1326.904541,1454.673340 1346.971680,1454.673340 1368.282959,1454.673340 
	C1368.282959,1537.313965 1368.282959,1620.133789 1368.282959,1703.945068 
z"/>
<path fill="#F4FC67" opacity="1.000000" stroke="none" 
	d="
M1015.311707,1384.617798 
	C999.729614,1384.885986 984.147095,1385.134155 968.565613,1385.433838 
	C963.530884,1385.530884 961.946716,1381.977539 960.330811,1378.163330 
	C949.693298,1353.055298 938.958191,1327.988892 928.306824,1302.886719 
	C918.695129,1280.234985 909.149536,1257.555176 899.069214,1233.691406 
	C897.086060,1228.995239 895.608459,1225.495483 893.534546,1220.583130 
	C892.809570,1223.137085 892.311768,1223.996216 892.370544,1224.815552 
	C893.675598,1242.992065 895.003296,1261.167358 896.446777,1279.333374 
	C896.624817,1281.573975 897.482483,1283.760498 897.978882,1286.911377 
	C897.915344,1316.580444 897.850891,1345.310547 897.941833,1374.040161 
	C897.953064,1377.588257 898.792542,1381.133789 899.248352,1384.680420 
	C887.081177,1386.232056 874.963989,1385.596069 862.374207,1384.948486 
	C862.374207,1315.812500 862.374207,1247.773315 862.374207,1179.002075 
	C864.960327,1178.746948 867.492798,1178.296143 870.027832,1178.281616 
	C881.994507,1178.213501 893.965027,1178.421021 905.927185,1178.182007 
	C909.720764,1178.106201 912.276428,1179.200806 914.272705,1183.988525 
	C918.566345,1194.764282 922.290771,1204.202515 926.427307,1213.456543 
	C928.665771,1218.464355 931.607605,1223.157715 934.232117,1227.992920 
	C934.232117,1227.992920 934.077209,1227.888184 934.077148,1228.562500 
	C936.137024,1233.487671 938.196899,1237.738770 940.256775,1241.989746 
	C940.256775,1241.989746 940.089661,1241.872925 940.089233,1242.543213 
	C942.151855,1247.471069 944.214905,1251.728760 946.277954,1255.986328 
	C946.277954,1255.986328 946.101501,1255.856445 946.102295,1256.523926 
	C948.170105,1261.455078 950.237122,1265.718872 952.304138,1269.982666 
	C952.304138,1269.982666 952.115234,1269.851318 952.114563,1270.513916 
	C954.186523,1275.443970 956.259155,1279.711670 958.331848,1283.979248 
	C958.331848,1283.979248 958.127319,1283.843140 958.131104,1284.519531 
	C962.820557,1295.462769 967.506104,1305.729370 972.191711,1315.996094 
	C972.191711,1315.996094 972.058899,1315.937622 972.059326,1316.635498 
	C975.380310,1324.873901 978.700989,1332.414429 982.116089,1340.096069 
	C982.210571,1340.237305 982.511414,1340.307861 982.511414,1340.307861 
	C982.511414,1340.307861 981.954468,1340.023193 981.975708,1339.389893 
	C981.953308,1336.440186 981.909607,1334.123779 981.865906,1331.807251 
	C980.646301,1309.536377 978.895508,1287.278687 978.347473,1264.991333 
	C977.725220,1239.683960 978.162170,1214.350098 978.185425,1189.027832 
	C978.188416,1185.786011 978.472961,1182.544312 978.661560,1178.576294 
	C990.500671,1178.576294 1001.724121,1178.576294 1013.485107,1180.088867 
	C1013.984192,1246.370850 1013.927368,1311.140137 1013.966797,1375.909424 
	C1013.968567,1378.812500 1014.843445,1381.714966 1015.311707,1384.617798 
z"/>
<path fill="#F3FB67" opacity="1.000000" stroke="none" 
	d="
M511.138245,1384.506226 
	C509.651581,1383.528564 507.500458,1382.865723 506.849335,1381.491943 
	C506.066254,1379.839478 506.507263,1377.582153 506.506989,1375.586792 
	C506.497955,1312.325439 506.496338,1249.063965 506.515442,1185.802612 
	C506.516052,1183.837158 506.748322,1181.871704 506.896271,1179.530884 
	C508.204041,1179.093872 509.400177,1178.330566 510.581665,1178.352539 
	C536.196777,1178.830688 561.835327,1178.886108 587.414490,1180.141724 
	C602.117493,1180.863525 616.235657,1185.094727 629.673950,1194.039307 
	C631.013184,1195.315796 631.591492,1195.667480 632.169800,1196.019287 
	C632.169800,1196.019287 631.976196,1196.024292 632.212830,1196.405029 
	C633.027222,1197.185303 633.604919,1197.584961 634.182617,1197.984497 
	C634.182617,1197.984497 634.012756,1197.976196 634.208618,1198.387939 
	C634.953308,1199.230347 635.502136,1199.661011 636.050964,1200.091797 
	C636.050964,1200.091797 635.906372,1200.014282 636.126587,1200.638672 
	C637.460999,1203.277466 638.607727,1205.274780 639.684631,1207.309204 
	C652.746094,1231.982910 643.025818,1261.416016 619.227417,1270.731567 
	C616.587891,1271.764771 614.119629,1273.235474 610.433716,1275.069702 
	C613.097534,1276.191284 614.530640,1276.794800 615.963684,1277.398193 
	C623.650879,1280.420776 631.338013,1283.443481 639.684204,1287.523926 
	C640.953857,1289.044067 641.564514,1289.506348 642.175171,1289.968628 
	C642.175171,1289.968628 641.975159,1289.891968 642.221558,1290.311279 
	C643.085632,1291.111938 643.703369,1291.493286 644.321106,1291.874634 
	C644.321106,1291.874634 644.098938,1291.845581 644.282837,1292.275879 
	C645.079773,1293.097656 645.692810,1293.489136 646.305908,1293.880493 
	C646.305908,1293.880493 646.144470,1293.739624 646.184082,1294.419678 
	C647.000610,1296.919434 647.705017,1298.774292 648.565369,1300.553711 
	C661.479492,1327.261963 653.812073,1355.623779 629.294189,1371.980957 
	C627.411194,1373.237061 625.788330,1374.883179 624.044617,1376.348022 
	C624.044617,1376.348022 624.066162,1376.165771 623.369812,1376.125244 
	C616.420776,1378.112427 610.168091,1380.140015 603.915405,1382.167725 
	C603.915405,1382.167725 603.994202,1381.983154 603.188599,1382.041260 
	C587.542480,1382.859497 572.709534,1383.913818 557.859314,1384.298950 
	C542.294250,1384.702759 526.712646,1384.464111 511.138245,1384.506226 
M552.019287,1262.912964 
	C564.266785,1263.269165 576.623352,1264.391846 588.428711,1259.966187 
	C600.674622,1255.375488 607.103149,1244.013428 605.465759,1230.612061 
	C603.896240,1217.766968 597.439880,1211.398560 582.946228,1209.841187 
	C572.436462,1208.711914 561.812622,1208.643677 549.442017,1208.205322 
	C548.383972,1209.259277 546.419373,1210.300293 546.403870,1211.369263 
	C546.170715,1227.480347 546.120911,1243.596069 546.331177,1259.706665 
	C546.344360,1260.713257 548.866150,1261.687012 552.019287,1262.912964 
M551.934937,1354.525024 
	C565.895447,1354.902588 579.923340,1356.004761 593.595215,1352.037231 
	C603.569153,1349.142700 610.392761,1343.046387 612.865173,1332.502075 
	C617.982483,1310.678711 605.935913,1293.646973 583.576294,1292.158936 
	C572.635498,1291.430908 561.618103,1291.854614 549.338440,1291.183716 
	C548.334900,1291.783081 546.458923,1292.375854 546.454224,1292.982910 
	C546.302795,1312.521240 546.284302,1332.061523 546.494080,1351.598877 
	C546.503235,1352.455933 548.849976,1353.287964 551.934937,1354.525024 
z"/>
<path fill="#F3FB66" opacity="1.000000" stroke="none" 
	d="
M800.590576,1384.535889 
	C795.836792,1384.421997 796.212524,1380.406738 795.382751,1377.477905 
	C791.734619,1364.600830 788.205688,1351.690063 783.463501,1337.815674 
	C763.365173,1336.683594 744.437195,1336.484009 725.508606,1336.389282 
	C715.717285,1336.340332 715.720642,1336.425171 713.043823,1346.322388 
	C709.682800,1358.749512 706.314758,1371.174683 702.670593,1384.631958 
	C690.147339,1384.631958 678.246277,1384.631958 666.345215,1384.631958 
	C665.384460,1383.598633 663.516418,1382.450928 663.629578,1381.552856 
	C663.998779,1378.622070 665.026428,1375.762573 665.913818,1372.910645 
	C685.261963,1310.728516 704.621521,1248.549927 724.000549,1186.377441 
	C724.785645,1183.858521 725.782288,1181.405762 726.728455,1178.788940 
	C742.867615,1178.788940 758.771179,1178.788940 775.343140,1180.088501 
	C784.333984,1208.737305 792.584717,1236.108521 800.996277,1263.430298 
	C812.541504,1300.930664 824.223755,1338.388916 835.788086,1375.883423 
	C836.515869,1378.243286 836.730164,1380.761597 837.429993,1384.535889 
	C824.422546,1384.535889 812.506531,1384.535889 800.590576,1384.535889 
M752.011230,1217.230225 
	C751.615906,1215.790894 751.220581,1214.351562 750.236633,1210.769287 
	C748.491028,1215.132690 747.325012,1217.379395 746.679565,1219.766724 
	C741.684204,1238.240601 736.802429,1256.744995 731.857849,1275.232788 
	C729.555908,1283.839722 727.124573,1292.412598 724.897278,1301.038452 
	C724.175232,1303.834717 722.836243,1307.394287 729.936035,1306.792603 
	C745.083252,1306.792603 760.230469,1306.792603 776.430664,1306.792603 
	C774.081848,1298.062988 772.162781,1290.743774 770.141296,1283.452881 
	C764.133545,1261.784424 758.085449,1240.127075 752.011230,1217.230225 
z"/>
<path fill="#F0F867" opacity="1.000000" stroke="none" 
	d="
M1220.334717,1222.000122 
	C1220.334839,1207.106812 1220.334839,1193.213379 1220.334839,1178.768311 
	C1260.622192,1178.768311 1299.803589,1178.768311 1340.026367,1178.768311 
	C1341.266357,1188.526855 1337.709473,1197.978638 1337.261475,1208.594238 
	C1312.071167,1208.594238 1287.550415,1208.594238 1263.348389,1208.594238 
	C1260.872681,1216.355347 1260.392944,1251.369629 1262.470459,1264.781860 
	C1283.400391,1264.781860 1304.532715,1264.781860 1326.427734,1264.781860 
	C1326.427734,1275.608643 1326.427734,1285.340088 1326.427734,1295.937256 
	C1304.668945,1295.937256 1283.478271,1295.937256 1261.801514,1295.937256 
	C1261.801514,1315.612671 1261.801514,1334.434326 1261.801514,1354.613770 
	C1288.416504,1354.613770 1314.838989,1354.613770 1341.668091,1354.613770 
	C1341.668091,1365.450073 1341.668091,1374.929077 1341.668091,1384.967407 
	C1301.340698,1384.967407 1261.561279,1384.967407 1220.334717,1384.967407 
	C1220.334717,1330.610718 1220.334717,1276.805420 1220.334717,1222.000122 
z"/>
<path fill="#F2F968" opacity="1.000000" stroke="none" 
	d="
M1178.014893,1208.435669 
	C1178.014893,1208.435669 1177.508911,1208.733521 1176.235962,1208.431152 
	C1151.233154,1208.128784 1127.503418,1208.128784 1103.567993,1208.128784 
	C1103.029297,1210.779297 1102.439087,1212.352417 1102.431152,1213.928345 
	C1102.356201,1228.835449 1102.315186,1243.743774 1102.460815,1258.649780 
	C1102.478394,1260.451294 1103.659302,1262.241455 1104.301025,1264.036743 
	C1109.572266,1264.364746 1114.840942,1264.919922 1120.115112,1264.975830 
	C1133.099243,1265.113403 1146.085938,1264.983765 1159.071167,1265.048096 
	C1162.289673,1265.063965 1165.506592,1265.409058 1169.283691,1265.636475 
	C1169.283691,1275.708618 1169.283691,1284.903687 1169.283691,1295.562500 
	C1148.036133,1296.146362 1126.577759,1295.484619 1104.552002,1295.949097 
	C1104.552002,1315.591309 1104.552002,1334.663574 1104.552002,1354.752686 
	C1131.186890,1354.752686 1157.347778,1354.752686 1184.219238,1354.752686 
	C1184.219238,1365.198120 1184.219238,1374.642456 1184.219238,1384.808594 
	C1143.978638,1384.808594 1103.929688,1384.808594 1063.998657,1384.808594 
	C1061.875977,1377.369263 1061.361206,1191.129639 1063.460205,1178.536377 
	C1102.472778,1178.536377 1141.643799,1178.536377 1181.429443,1179.896484 
	C1180.701172,1190.316406 1179.358032,1199.375977 1178.014893,1208.435669 
z"/>
<path fill="#F3FB67" opacity="1.000000" stroke="none" 
	d="
M1415.380859,1178.412109 
	C1417.079224,1182.266968 1418.478760,1185.988647 1418.489624,1189.714233 
	C1418.635254,1239.706665 1418.587280,1289.699585 1418.587524,1339.692383 
	C1418.587524,1343.310425 1418.587524,1346.928345 1418.587524,1351.863037 
	C1446.067505,1352.392944 1472.849976,1351.715576 1500.867920,1352.253418 
	C1499.383789,1363.592407 1498.024902,1373.975342 1496.597900,1384.878540 
	C1457.004639,1384.878540 1418.244873,1384.878540 1378.896729,1384.878540 
	C1378.896729,1316.165771 1378.896729,1247.993164 1378.896729,1178.623169 
	C1390.715454,1177.825928 1402.589355,1178.362183 1415.380859,1178.412109 
z"/>
<path fill="#E3E5CC" opacity="1.000000" stroke="none" 
	d="
M801.246216,1384.896851 
	C812.506531,1384.535889 824.422546,1384.535889 837.429993,1384.535889 
	C836.730164,1380.761597 836.515869,1378.243286 835.788086,1375.883423 
	C824.223755,1338.388916 812.541504,1300.930664 800.996277,1263.430298 
	C792.584717,1236.108521 784.333984,1208.737305 776.008057,1180.591309 
	C781.111145,1181.162964 780.381714,1186.130249 781.454285,1189.545166 
	C795.906799,1235.557251 810.076721,1281.658203 824.335693,1327.731201 
	C830.121399,1346.425659 835.953125,1365.105835 842.280396,1385.453735 
	C834.804199,1385.453735 828.344604,1385.479248 821.885254,1385.446777 
	C815.223938,1385.413208 808.562927,1385.323120 801.246216,1384.896851 
z"/>
<path fill="#E3E5CC" opacity="1.000000" stroke="none" 
	d="
M667.019287,1384.998779 
	C678.246277,1384.631958 690.147339,1384.631958 702.670593,1384.631958 
	C706.314758,1371.174683 709.682800,1358.749512 713.043823,1346.322388 
	C715.720642,1336.425171 715.717285,1336.340332 725.508606,1336.389282 
	C744.437195,1336.484009 763.365173,1336.683594 782.992004,1337.180054 
	C762.737061,1337.520386 741.783630,1337.520386 719.880127,1337.520386 
	C715.503235,1353.421631 711.223083,1368.971069 706.710388,1385.365601 
	C693.486572,1385.365601 680.589966,1385.365601 667.019287,1384.998779 
z"/>
<path fill="#E3E5CC" opacity="1.000000" stroke="none" 
	d="
M624.794067,1376.512695 
	C625.788330,1374.883179 627.411194,1373.237061 629.294189,1371.980957 
	C653.812073,1355.623779 661.479492,1327.261963 648.565369,1300.553711 
	C647.705017,1298.774292 647.000610,1296.919434 646.261719,1294.345825 
	C652.105652,1296.596191 654.169312,1302.384766 655.860046,1307.893799 
	C660.378418,1322.616943 659.858643,1337.359619 653.515747,1351.519043 
	C647.955383,1363.931396 638.254639,1372.056030 624.794067,1376.512695 
z"/>
<path fill="#E3E5CC" opacity="1.000000" stroke="none" 
	d="
M616.414978,1276.759033 
	C614.530640,1276.794800 613.097534,1276.191284 610.433716,1275.069702 
	C614.119629,1273.235474 616.587891,1271.764771 619.227417,1270.731567 
	C643.025818,1261.416016 652.746094,1231.982910 639.684631,1207.309204 
	C638.607727,1205.274780 637.460999,1203.277466 636.159668,1200.563599 
	C638.792114,1202.944824 642.370483,1205.612305 644.308716,1209.172729 
	C657.213074,1232.877808 647.990845,1260.688843 623.705811,1272.356201 
	C621.363708,1273.481201 619.143188,1274.859253 616.414978,1276.759033 
z"/>
<path fill="#E3E5CC" opacity="1.000000" stroke="none" 
	d="
M1015.749023,1383.707886 
	C1014.843445,1381.714966 1013.968567,1378.812500 1013.966797,1375.909424 
	C1013.927368,1311.140137 1013.984192,1246.370850 1014.125793,1180.650391 
	C1014.935486,1183.027954 1016.249512,1186.355469 1016.257874,1189.686035 
	C1016.387939,1241.448975 1016.359253,1293.212402 1016.341553,1344.975708 
	C1016.337219,1357.583130 1016.240540,1370.190552 1015.749023,1383.707886 
z"/>
<path fill="#E3E5CC" opacity="1.000000" stroke="none" 
	d="
M898.025208,1285.972168 
	C897.482483,1283.760498 896.624817,1281.573975 896.446777,1279.333374 
	C895.003296,1261.167358 893.675598,1242.992065 892.370544,1224.815552 
	C892.311768,1223.996216 892.809570,1223.137085 893.534546,1220.583130 
	C895.608459,1225.495483 897.086060,1228.995239 898.801880,1232.822388 
	C898.669678,1236.339233 897.868652,1239.547119 898.003174,1242.715088 
	C898.590332,1256.542603 899.449158,1270.358521 899.563782,1285.094604 
	C898.918213,1286.010498 898.025208,1285.972168 898.025208,1285.972168 
z"/>
<path fill="#9D9F7C" opacity="1.000000" stroke="none" 
	d="
M1104.356689,1263.093506 
	C1103.659302,1262.241455 1102.478394,1260.451294 1102.460815,1258.649780 
	C1102.315186,1243.743774 1102.356201,1228.835449 1102.431152,1213.928345 
	C1102.439087,1212.352417 1103.029297,1210.779297 1103.567993,1208.128784 
	C1127.503418,1208.128784 1151.233154,1208.128784 1175.945435,1208.388672 
	C1173.688354,1209.043945 1170.450806,1209.759644 1167.208862,1209.781128 
	C1149.961670,1209.895874 1132.713379,1209.836670 1115.465454,1209.837646 
	C1112.214233,1209.837769 1108.963135,1209.837646 1104.412476,1209.837646 
	C1104.412476,1227.875122 1104.412476,1245.012695 1104.356689,1263.093506 
z"/>
<path fill="#FAFAFA" opacity="1.000000" stroke="none" 
	d="
M897.978882,1286.911377 
	C898.025208,1285.972168 898.918213,1286.010498 899.365112,1286.013184 
	C899.927368,1318.294312 900.042664,1350.572754 899.703125,1383.765869 
	C898.792542,1381.133789 897.953064,1377.588257 897.941833,1374.040161 
	C897.850891,1345.310547 897.915344,1316.580444 897.978882,1286.911377 
z"/>
<path fill="#E3E5CC" opacity="1.000000" stroke="none" 
	d="
M511.734192,1384.872192 
	C526.712646,1384.464111 542.294250,1384.702759 557.859314,1384.298950 
	C572.709534,1383.913818 587.542480,1382.859497 603.281372,1382.079590 
	C595.726562,1383.123779 587.287964,1384.941284 578.817322,1385.105591 
	C556.662476,1385.535400 534.493469,1385.242798 511.734192,1384.872192 
z"/>
<path fill="#E3E5CC" opacity="1.000000" stroke="none" 
	d="
M934.348877,1227.214355 
	C931.607605,1223.157715 928.665771,1218.464355 926.427307,1213.456543 
	C922.290771,1204.202515 918.566345,1194.764282 914.624023,1184.708984 
	C915.680115,1185.116699 917.236694,1186.020752 917.814392,1187.350342 
	C923.458191,1200.338257 928.938660,1213.396973 934.348877,1227.214355 
z"/>
<path fill="#E3E5CC" opacity="1.000000" stroke="none" 
	d="
M972.304443,1315.217773 
	C967.506104,1305.729370 962.820557,1295.462769 958.207275,1284.423218 
	C962.992126,1293.913452 967.704651,1304.176514 972.304443,1315.217773 
z"/>
<path fill="#E3E5CC" opacity="1.000000" stroke="none" 
	d="
M982.021606,1339.954834 
	C978.700989,1332.414429 975.380310,1324.873901 972.096802,1316.573486 
	C974.884705,1320.629639 977.635498,1325.445801 981.126099,1331.034668 
	C981.909607,1334.123779 981.953308,1336.440186 981.996704,1339.376709 
	C981.996338,1339.996826 982.021606,1339.954834 982.021606,1339.954834 
z"/>
<path fill="#9D9F7C" opacity="1.000000" stroke="none" 
	d="
M1178.789795,1208.167480 
	C1179.358032,1199.375977 1180.701172,1190.316406 1182.106201,1180.399170 
	C1182.744385,1180.620972 1183.945801,1181.795166 1183.798828,1182.764648 
	C1182.525024,1191.163696 1181.008789,1199.526001 1178.789795,1208.167480 
z"/>
<path fill="#E3E5CC" opacity="1.000000" stroke="none" 
	d="
M604.748535,1382.259888 
	C610.168091,1380.140015 616.420776,1378.112427 623.458862,1376.147705 
	C618.023376,1378.257690 611.802490,1380.304810 604.748535,1382.259888 
z"/>
<path fill="#E3E5CC" opacity="1.000000" stroke="none" 
	d="
M958.473328,1283.223022 
	C956.259155,1279.711670 954.186523,1275.443970 952.187500,1270.424805 
	C954.378967,1273.937866 956.496887,1278.202271 958.473328,1283.223022 
z"/>
<path fill="#E3E5CC" opacity="1.000000" stroke="none" 
	d="
M952.442749,1269.227539 
	C950.237122,1265.718872 948.170105,1261.455078 946.173401,1256.440430 
	C948.356262,1259.950562 950.468811,1264.211426 952.442749,1269.227539 
z"/>
<path fill="#E3E5CC" opacity="1.000000" stroke="none" 
	d="
M946.414551,1255.232422 
	C944.214905,1251.728760 942.151855,1247.471069 940.153320,1242.463989 
	C942.329041,1245.969116 944.440063,1250.223877 946.414551,1255.232422 
z"/>
<path fill="#E3E5CC" opacity="1.000000" stroke="none" 
	d="
M940.387207,1241.237061 
	C938.196899,1237.738770 936.137024,1233.487671 934.134705,1228.488770 
	C936.300720,1231.988525 938.409180,1236.236450 940.387207,1241.237061 
z"/>
<path fill="#E3E5CC" opacity="1.000000" stroke="none" 
	d="
M631.975647,1195.505615 
	C631.591492,1195.667480 631.013184,1195.315796 630.125488,1194.554443 
	C630.471191,1194.427002 631.126343,1194.709473 631.975647,1195.505615 
z"/>
<path fill="#E3E5CC" opacity="1.000000" stroke="none" 
	d="
M646.363281,1293.214966 
	C645.692810,1293.489136 645.079773,1293.097656 644.308533,1292.166992 
	C644.907166,1291.934814 645.663879,1292.242188 646.363281,1293.214966 
z"/>
<path fill="#E3E5CC" opacity="1.000000" stroke="none" 
	d="
M644.341675,1291.223877 
	C643.703369,1291.493286 643.085632,1291.111938 642.261230,1290.211670 
	C642.823730,1289.986206 643.593018,1290.279663 644.341675,1291.223877 
z"/>
<path fill="#E3E5CC" opacity="1.000000" stroke="none" 
	d="
M642.090881,1289.340942 
	C641.564514,1289.506348 640.953857,1289.044067 640.068604,1288.061035 
	C640.531494,1287.931274 641.269043,1288.322266 642.090881,1289.340942 
z"/>
<path fill="#E3E5CC" opacity="1.000000" stroke="none" 
	d="
M634.085999,1197.406006 
	C633.604919,1197.584961 633.027222,1197.185303 632.207886,1196.308350 
	C632.640686,1196.163208 633.315063,1196.495361 634.085999,1197.406006 
z"/>
<path fill="#E3E5CC" opacity="1.000000" stroke="none" 
	d="
M636.094360,1199.470947 
	C635.502136,1199.661011 634.953308,1199.230347 634.214478,1198.303101 
	C634.728821,1198.154419 635.433289,1198.502319 636.094360,1199.470947 
z"/>
<path fill="#272726" opacity="1.000000" stroke="none" 
	d="
M1805.436401,1465.431885 
	C1829.004395,1440.952759 1847.427368,1413.806030 1861.235840,1383.543213 
	C1875.020264,1353.332764 1882.945801,1321.554810 1885.593872,1287.695068 
	C1888.995605,1288.550293 1891.531738,1288.945312 1893.891846,1289.817017 
	C1935.060913,1305.023315 1961.698608,1333.231689 1971.008179,1376.670288 
	C1972.184204,1382.157593 1972.505981,1387.908081 1972.555542,1393.542480 
	C1972.758057,1416.516846 1979.979736,1436.007690 2000.156006,1449.640625 
	C1999.014648,1452.242310 1998.143799,1454.680054 1996.928833,1456.932129 
	C1937.036743,1567.943359 1845.945801,1637.200562 1721.911621,1662.346924 
	C1709.791504,1664.804077 1697.718262,1666.373779 1685.264282,1664.315308 
	C1657.936523,1659.798340 1638.273071,1640.118164 1634.145752,1612.802368 
	C1629.802002,1584.053467 1639.185059,1561.554688 1664.618652,1546.823853 
	C1673.485718,1541.688477 1682.851074,1536.783325 1692.619751,1533.942871 
	C1736.220703,1521.264526 1773.286255,1498.160400 1805.436401,1465.431885 
z"/>
<path fill="#292927" opacity="1.000000" stroke="none" 
	d="
M1693.902954,1341.775391 
	C1682.186768,1358.796753 1658.078979,1351.394775 1651.988281,1334.385742 
	C1647.156982,1320.893677 1645.924683,1306.981201 1649.056152,1293.116089 
	C1659.110352,1248.598877 1686.920410,1220.489624 1730.809692,1209.555908 
	C1776.010986,1198.295532 1814.497559,1212.485962 1848.287842,1244.401245 
	C1844.187256,1247.021606 1840.522949,1245.850586 1837.142578,1245.851685 
	C1795.261108,1245.865601 1759.032593,1260.049072 1728.778564,1289.078125 
	C1716.153687,1301.191528 1706.488770,1315.462158 1699.186035,1331.352783 
	C1697.662231,1334.668457 1695.936157,1337.891113 1693.902954,1341.775391 
z"/>
<path fill="#292927" opacity="1.000000" stroke="none" 
	d="
M1914.695679,1258.295898 
	C1915.087280,1256.807739 1915.838135,1255.126587 1917.088013,1254.573608 
	C1991.785278,1221.537720 2062.222900,1277.488281 2072.166748,1337.153809 
	C2075.537598,1357.379272 2074.260986,1377.153687 2064.945557,1395.612427 
	C2061.262695,1402.910400 2056.197266,1409.904663 2050.378418,1415.632080 
	C2042.954590,1422.938843 2033.238403,1424.246704 2023.404785,1420.390381 
	C2013.472168,1416.495117 2009.609009,1408.424072 2009.478638,1398.230347 
	C2009.140381,1371.781006 2003.467651,1346.726074 1990.097290,1323.672485 
	C1972.577881,1293.464722 1947.216675,1272.268066 1914.695679,1258.295898 
z"/>
<path fill="#292927" opacity="1.000000" stroke="none" 
	d="
M2058.393311,1153.589722 
	C2050.937500,1133.568726 2043.694702,1114.303223 2036.045898,1093.957520 
	C2037.004761,1092.929199 2038.571533,1090.818848 2040.542358,1089.200806 
	C2066.127197,1068.196411 2094.881592,1058.764404 2127.834229,1066.422729 
	C2134.169678,1067.895142 2140.515625,1070.764648 2145.945557,1074.364136 
	C2154.646484,1080.132202 2158.356445,1089.083618 2156.960693,1099.461914 
	C2155.611572,1109.495361 2148.871582,1115.385864 2139.567139,1117.968018 
	C2110.156494,1126.129761 2085.572266,1141.712280 2065.746826,1164.887939 
	C2065.168457,1165.564087 2064.102295,1165.822754 2062.650879,1166.607178 
	C2061.234375,1162.312256 2059.920410,1158.328735 2058.393311,1153.589722 
z"/>
<path fill="#2B2B2B" opacity="1.000000" stroke="none" 
	d="
M1095.690063,1635.512207 
	C1107.389893,1591.515137 1118.920410,1548.312256 1130.450928,1505.109497 
	C1131.024170,1505.076904 1131.597412,1505.044434 1132.170532,1505.011841 
	C1145.583740,1554.613037 1158.996948,1604.214233 1172.666626,1654.763794 
	C1145.020020,1654.763794 1118.338867,1654.763794 1090.714111,1654.763794 
	C1092.375854,1648.383057 1093.948364,1642.344849 1095.690063,1635.512207 
z"/>
<path fill="#282828" opacity="1.000000" stroke="none" 
	d="
M630.517944,950.694458 
	C616.017212,950.773132 602.424927,950.773132 588.223938,950.773132 
	C588.223938,911.168030 588.223938,872.023193 588.223938,832.213074 
	C590.232361,831.954712 592.422913,831.426941 594.612244,831.431885 
	C607.268921,831.460510 619.943665,831.246643 632.574097,831.878052 
	C639.148560,832.206726 645.801025,833.560181 652.147034,835.390686 
	C671.542358,840.985168 683.381897,853.922791 687.001160,873.809021 
	C689.535034,887.731323 689.069336,901.676331 684.962219,915.337891 
	C679.809753,932.476318 668.067627,942.927063 651.111633,947.478333 
	C644.729004,949.191650 637.998352,949.608154 630.517944,950.694458 
z"/>
<path fill="#E3E5CC" opacity="1.000000" stroke="none" 
	d="
M981.975403,1340.010010 
	C981.954468,1340.023193 982.511414,1340.307861 982.511414,1340.307861 
	C982.511414,1340.307861 982.210571,1340.237305 982.116089,1340.096069 
	C982.021606,1339.954834 981.996338,1339.996826 981.975403,1340.010010 
z"/>
<path fill="#292927" opacity="1.000000" stroke="none" 
	d="
M550.635376,1291.757080 
	C561.618103,1291.854614 572.635498,1291.430908 583.576294,1292.158936 
	C605.935913,1293.646973 617.982483,1310.678711 612.865173,1332.502075 
	C610.392761,1343.046387 603.569153,1349.142700 593.595215,1352.037231 
	C579.923340,1356.004761 565.895447,1354.902588 551.022339,1353.377563 
	C550.285034,1332.072388 550.460205,1311.914795 550.635376,1291.757080 
z"/>
<path fill="#2B2B2B" opacity="1.000000" stroke="none" 
	d="
M551.239685,1208.102173 
	C561.812622,1208.643677 572.436462,1208.711914 582.946228,1209.841187 
	C597.439880,1211.398560 603.896240,1217.766968 605.465759,1230.612061 
	C607.103149,1244.013428 600.674622,1255.375488 588.428711,1259.966187 
	C576.623352,1264.391846 564.266785,1263.269165 551.073975,1261.981689 
	C550.116638,1248.257935 550.000488,1235.464355 550.145813,1222.673706 
	C550.201050,1217.813110 550.857361,1212.959106 551.239685,1208.102173 
z"/>
<path fill="#FAFAFA" opacity="1.000000" stroke="none" 
	d="
M549.986938,1291.470459 
	C550.460205,1311.914795 550.285034,1332.072388 550.108826,1353.180908 
	C548.849976,1353.287964 546.503235,1352.455933 546.494080,1351.598877 
	C546.284302,1332.061523 546.302795,1312.521240 546.454224,1292.982910 
	C546.458923,1292.375854 548.334900,1291.783081 549.986938,1291.470459 
z"/>
<path fill="#FAFAFA" opacity="1.000000" stroke="none" 
	d="
M550.340820,1208.153809 
	C550.857361,1212.959106 550.201050,1217.813110 550.145813,1222.673706 
	C550.000488,1235.464355 550.116638,1248.257935 550.174744,1261.863281 
	C548.866150,1261.687012 546.344360,1260.713257 546.331177,1259.706665 
	C546.120911,1243.596069 546.170715,1227.480347 546.403870,1211.369263 
	C546.419373,1210.300293 548.383972,1209.259277 550.340820,1208.153809 
z"/>
<path fill="#2B2B2B" opacity="1.000000" stroke="none" 
	d="
M752.053101,1218.465454 
	C758.085449,1240.127075 764.133545,1261.784424 770.141296,1283.452881 
	C772.162781,1290.743774 774.081848,1298.062988 776.430664,1306.792603 
	C760.230469,1306.792603 745.083252,1306.792603 729.102539,1306.089111 
	C730.995178,1294.831787 733.580017,1284.239136 736.478577,1273.732788 
	C741.568787,1255.282471 746.851196,1236.885010 752.053101,1218.465454 
z"/>
<path fill="#E3E5CC" opacity="1.000000" stroke="none" 
	d="
M752.032166,1217.847900 
	C746.851196,1236.885010 741.568787,1255.282471 736.478577,1273.732788 
	C733.580017,1284.239136 730.995178,1294.831787 728.266479,1306.059570 
	C722.836243,1307.394287 724.175232,1303.834717 724.897278,1301.038452 
	C727.124573,1292.412598 729.555908,1283.839722 731.857849,1275.232788 
	C736.802429,1256.744995 741.684204,1238.240601 746.679565,1219.766724 
	C747.325012,1217.379395 748.491028,1215.132690 750.236633,1210.769287 
	C751.220581,1214.351562 751.615906,1215.790894 752.032166,1217.847900 
z"/>
</svg>